<svg xmlns="http://www.w3.org/2000/svg" xmlns:xlink="http://www.w3.org/1999/xlink" width="300" zoomAndPan="magnify" viewBox="0 0 224.87999 225" height="300" preserveAspectRatio="xMidYMid meet" version="1.0"><defs><clipPath id="202beb3c2a"><path d="M 146 112 L 190 112 L 190 138 L 146 138 Z M 146 112 " clip-rule="nonzero"/></clipPath><clipPath id="525548be5f"><path d="M 105.125 0.0585938 L 225.117188 105.390625 L 119.785156 225.382812 L -0.207031 120.050781 Z M 105.125 0.0585938 " clip-rule="nonzero"/></clipPath><clipPath id="734f60427b"><path d="M 105.125 0.0585938 L 225.117188 105.390625 L 119.785156 225.382812 L -0.207031 120.050781 Z M 105.125 0.0585938 " clip-rule="nonzero"/></clipPath><clipPath id="8df37399b8"><path d="M 105.125 0.0585938 L 225.117188 105.390625 L 119.785156 225.382812 L -0.207031 120.050781 Z M 105.125 0.0585938 " clip-rule="nonzero"/></clipPath><clipPath id="c5beebc1b2"><path d="M 87 25 L 131 25 L 131 51 L 87 51 Z M 87 25 " clip-rule="nonzero"/></clipPath><clipPath id="8607b91cf5"><path d="M 105.125 0.0585938 L 225.117188 105.390625 L 119.785156 225.382812 L -0.207031 120.050781 Z M 105.125 0.0585938 " clip-rule="nonzero"/></clipPath><clipPath id="0ed8fe047b"><path d="M 105.125 0.0585938 L 225.117188 105.390625 L 119.785156 225.382812 L -0.207031 120.050781 Z M 105.125 0.0585938 " clip-rule="nonzero"/></clipPath><clipPath id="7237f57158"><path d="M 105.125 0.0585938 L 225.117188 105.390625 L 119.785156 225.382812 L -0.207031 120.050781 Z M 105.125 0.0585938 " clip-rule="nonzero"/></clipPath><clipPath id="73aa1e79d3"><path d="M 21 95 L 65 95 L 65 121 L 21 121 Z M 21 95 " clip-rule="nonzero"/></clipPath><clipPath id="a83897a537"><path d="M 105.125 0.0585938 L 225.117188 105.390625 L 119.785156 225.382812 L -0.207031 120.050781 Z M 105.125 0.0585938 " clip-rule="nonzero"/></clipPath><clipPath id="08a536a1fa"><path d="M 105.125 0.0585938 L 225.117188 105.390625 L 119.785156 225.382812 L -0.207031 120.050781 Z M 105.125 0.0585938 " clip-rule="nonzero"/></clipPath><clipPath id="ef0330d382"><path d="M 105.125 0.0585938 L 225.117188 105.390625 L 119.785156 225.382812 L -0.207031 120.050781 Z M 105.125 0.0585938 " clip-rule="nonzero"/></clipPath><clipPath id="7878c42248"><path d="M 86 181 L 130 181 L 130 207 L 86 207 Z M 86 181 " clip-rule="nonzero"/></clipPath><clipPath id="b397edf57a"><path d="M 105.125 0.0585938 L 225.117188 105.390625 L 119.785156 225.382812 L -0.207031 120.050781 Z M 105.125 0.0585938 " clip-rule="nonzero"/></clipPath><clipPath id="cc9b838b78"><path d="M 105.125 0.0585938 L 225.117188 105.390625 L 119.785156 225.382812 L -0.207031 120.050781 Z M 105.125 0.0585938 " clip-rule="nonzero"/></clipPath><clipPath id="d30ec8ac21"><path d="M 105.125 0.0585938 L 225.117188 105.390625 L 119.785156 225.382812 L -0.207031 120.050781 Z M 105.125 0.0585938 " clip-rule="nonzero"/></clipPath><clipPath id="dc4de1164c"><path d="M 196 89 L 224.761719 89 L 224.761719 106 L 196 106 Z M 196 89 " clip-rule="nonzero"/></clipPath><clipPath id="ed725b9d7f"><path d="M 105.125 0.0585938 L 225.117188 105.390625 L 119.785156 225.382812 L -0.207031 120.050781 Z M 105.125 0.0585938 " clip-rule="nonzero"/></clipPath><clipPath id="298b2cba56"><path d="M 105.125 0.0585938 L 225.117188 105.390625 L 119.785156 225.382812 L -0.207031 120.050781 Z M 105.125 0.0585938 " clip-rule="nonzero"/></clipPath><clipPath id="2d956ba23c"><path d="M 105.125 0.0585938 L 225.117188 105.390625 L 119.785156 225.382812 L -0.207031 120.050781 Z M 105.125 0.0585938 " clip-rule="nonzero"/></clipPath><clipPath id="c9d4928f08"><path d="M 88 111 L 117 111 L 117 129 L 88 129 Z M 88 111 " clip-rule="nonzero"/></clipPath><clipPath id="02baa1a091"><path d="M 105.125 0.0585938 L 225.117188 105.390625 L 119.785156 225.382812 L -0.207031 120.050781 Z M 105.125 0.0585938 " clip-rule="nonzero"/></clipPath><clipPath id="798480dca0"><path d="M 105.125 0.0585938 L 225.117188 105.390625 L 119.785156 225.382812 L -0.207031 120.050781 Z M 105.125 0.0585938 " clip-rule="nonzero"/></clipPath><clipPath id="d82e3b9690"><path d="M 105.125 0.0585938 L 225.117188 105.390625 L 119.785156 225.382812 L -0.207031 120.050781 Z M 105.125 0.0585938 " clip-rule="nonzero"/></clipPath></defs><g clip-path="url(#202beb3c2a)"><g clip-path="url(#525548be5f)"><g clip-path="url(#734f60427b)"><g clip-path="url(#8df37399b8)"><path fill="#000000" d="M 189.742188 136.707031 C 189.742188 136.707031 183.820312 131.28125 180.679688 130.273438 C 180.679688 130.273438 168.621094 127.460938 163.453125 129.394531 L 158.867188 120.976562 C 155.390625 115.304688 150.300781 113.503906 146.9375 112.019531 C 146.9375 112.019531 154.152344 122.828125 160.625 131.875 C 160.625 131.875 156.738281 134.871094 157.730469 136.425781 C 159.289062 135.808594 160.71875 135.40625 162.023438 135.199219 C 164.386719 135.480469 165.292969 136.445312 166.441406 137.113281 L 166.011719 133.550781 C 174.269531 132.605469 183.15625 133.5 189.742188 136.707031 Z M 189.742188 136.707031 " fill-opacity="1" fill-rule="evenodd"/></g></g></g></g><g clip-path="url(#c5beebc1b2)"><g clip-path="url(#8607b91cf5)"><g clip-path="url(#0ed8fe047b)"><g clip-path="url(#7237f57158)"><path fill="#000000" d="M 130.554688 49.839844 C 130.554688 49.839844 124.628906 44.417969 121.492188 43.40625 C 121.492188 43.40625 109.429688 40.597656 104.265625 42.527344 L 99.675781 34.109375 C 96.199219 28.4375 91.109375 26.640625 87.75 25.152344 C 87.75 25.152344 94.964844 35.964844 101.433594 45.007812 C 101.433594 45.007812 97.550781 48.007812 98.539062 49.558594 C 100.097656 48.945312 101.527344 48.539062 102.835938 48.335938 C 105.195312 48.613281 106.101562 49.578125 107.25 50.246094 L 106.824219 46.683594 C 115.082031 45.738281 123.964844 46.632812 130.554688 49.839844 Z M 130.554688 49.839844 " fill-opacity="1" fill-rule="evenodd"/></g></g></g></g><g clip-path="url(#73aa1e79d3)"><g clip-path="url(#a83897a537)"><g clip-path="url(#08a536a1fa)"><g clip-path="url(#ef0330d382)"><path fill="#000000" d="M 64.238281 120.105469 C 64.238281 120.105469 58.3125 114.683594 55.175781 113.671875 C 55.175781 113.671875 43.113281 110.863281 37.949219 112.792969 L 33.359375 104.375 C 29.882812 98.703125 24.792969 96.90625 21.433594 95.417969 C 21.433594 95.417969 28.648438 106.230469 35.117188 115.273438 C 35.117188 115.273438 31.234375 118.269531 32.222656 119.824219 C 33.78125 119.210938 35.210938 118.804688 36.519531 118.597656 C 38.878906 118.878906 39.785156 119.84375 40.933594 120.511719 L 40.507812 116.949219 C 48.765625 116.003906 57.648438 116.898438 64.238281 120.105469 Z M 64.238281 120.105469 " fill-opacity="1" fill-rule="evenodd"/></g></g></g></g><g clip-path="url(#7878c42248)"><g clip-path="url(#b397edf57a)"><g clip-path="url(#cc9b838b78)"><g clip-path="url(#d30ec8ac21)"><path fill="#000000" d="M 129.300781 205.910156 C 129.300781 205.910156 123.375 200.488281 120.238281 199.476562 C 120.238281 199.476562 108.175781 196.667969 103.011719 198.597656 L 98.421875 190.179688 C 94.945312 184.507812 89.855469 182.710938 86.496094 181.222656 C 86.496094 181.222656 93.710938 192.035156 100.179688 201.078125 C 100.179688 201.078125 96.296875 204.078125 97.285156 205.628906 C 98.84375 205.015625 100.277344 204.609375 101.582031 204.40625 C 103.941406 204.683594 104.847656 205.648438 105.996094 206.316406 L 105.570312 202.753906 C 113.828125 201.808594 122.710938 202.703125 129.300781 205.910156 Z M 129.300781 205.910156 " fill-opacity="1" fill-rule="evenodd"/></g></g></g></g><g clip-path="url(#dc4de1164c)"><g clip-path="url(#ed725b9d7f)"><g clip-path="url(#298b2cba56)"><g clip-path="url(#2d956ba23c)"><path fill="#000000" d="M 225.074219 105.347656 C 225.074219 105.347656 221.175781 101.777344 219.109375 101.113281 C 219.109375 101.113281 211.167969 99.261719 207.765625 100.535156 L 204.746094 94.992188 C 202.457031 91.257812 199.109375 90.074219 196.894531 89.09375 C 196.894531 89.09375 201.644531 96.210938 205.902344 102.167969 C 205.902344 102.167969 203.347656 104.140625 204 105.164062 C 205.023438 104.757812 205.964844 104.492188 206.824219 104.355469 C 208.378906 104.542969 208.976562 105.175781 209.734375 105.617188 L 209.453125 103.269531 C 214.886719 102.648438 220.738281 103.234375 225.074219 105.347656 Z M 225.074219 105.347656 " fill-opacity="1" fill-rule="evenodd"/></g></g></g></g><g clip-path="url(#c9d4928f08)"><g clip-path="url(#02baa1a091)"><g clip-path="url(#798480dca0)"><g clip-path="url(#d82e3b9690)"><path fill="#000000" d="M 116.585938 128.179688 C 116.585938 128.179688 112.683594 124.605469 110.617188 123.941406 C 110.617188 123.941406 102.679688 122.09375 99.277344 123.363281 L 96.257812 117.820312 C 93.96875 114.085938 90.617188 112.902344 88.40625 111.925781 C 88.40625 111.925781 93.15625 119.042969 97.414062 124.996094 C 97.414062 124.996094 94.855469 126.96875 95.507812 127.992188 C 96.535156 127.589844 97.476562 127.320312 98.335938 127.1875 C 99.890625 127.371094 100.488281 128.007812 101.242188 128.445312 L 100.960938 126.101562 C 106.398438 125.476562 112.246094 126.066406 116.585938 128.179688 Z M 116.585938 128.179688 " fill-opacity="1" fill-rule="evenodd"/></g></g></g></g></svg>