<svg xmlns="http://www.w3.org/2000/svg" xmlns:xlink="http://www.w3.org/1999/xlink" width="300" zoomAndPan="magnify" viewBox="0 0 224.87999 225" height="300" preserveAspectRatio="xMidYMid meet" version="1.0"><defs><clipPath id="0dbe169835"><path d="M 146 112 L 189 112 L 189 140 L 146 140 Z M 146 112 " clip-rule="nonzero"/></clipPath><clipPath id="9ba78282ff"><path d="M 109.175781 0.0585938 L 224.757812 109.125 L 115.695312 224.707031 L 0.113281 115.640625 Z M 109.175781 0.0585938 " clip-rule="nonzero"/></clipPath><clipPath id="f53cdfd829"><path d="M 109.175781 0.0585938 L 224.757812 109.125 L 115.695312 224.707031 L 0.113281 115.640625 Z M 109.175781 0.0585938 " clip-rule="nonzero"/></clipPath><clipPath id="2be65c8c19"><path d="M 109.175781 0.0585938 L 224.757812 109.125 L 115.695312 224.707031 L 0.113281 115.640625 Z M 109.175781 0.0585938 " clip-rule="nonzero"/></clipPath><clipPath id="4645d40473"><path d="M 90 24 L 133 24 L 133 51 L 90 51 Z M 90 24 " clip-rule="nonzero"/></clipPath><clipPath id="5ba4389565"><path d="M 109.175781 0.0585938 L 224.757812 109.125 L 115.695312 224.707031 L 0.113281 115.640625 Z M 109.175781 0.0585938 " clip-rule="nonzero"/></clipPath><clipPath id="7b136d0e3d"><path d="M 109.175781 0.0585938 L 224.757812 109.125 L 115.695312 224.707031 L 0.113281 115.640625 Z M 109.175781 0.0585938 " clip-rule="nonzero"/></clipPath><clipPath id="43ace584ca"><path d="M 109.175781 0.0585938 L 224.757812 109.125 L 115.695312 224.707031 L 0.113281 115.640625 Z M 109.175781 0.0585938 " clip-rule="nonzero"/></clipPath><clipPath id="d78a77a7d4"><path d="M 22 91 L 65 91 L 65 118 L 22 118 Z M 22 91 " clip-rule="nonzero"/></clipPath><clipPath id="076a304d78"><path d="M 109.175781 0.0585938 L 224.757812 109.125 L 115.695312 224.707031 L 0.113281 115.640625 Z M 109.175781 0.0585938 " clip-rule="nonzero"/></clipPath><clipPath id="3477121aed"><path d="M 109.175781 0.0585938 L 224.757812 109.125 L 115.695312 224.707031 L 0.113281 115.640625 Z M 109.175781 0.0585938 " clip-rule="nonzero"/></clipPath><clipPath id="db30065586"><path d="M 109.175781 0.0585938 L 224.757812 109.125 L 115.695312 224.707031 L 0.113281 115.640625 Z M 109.175781 0.0585938 " clip-rule="nonzero"/></clipPath><clipPath id="57c1edcc56"><path d="M 84 179 L 126 179 L 126 206 L 84 206 Z M 84 179 " clip-rule="nonzero"/></clipPath><clipPath id="fc0576aa80"><path d="M 109.175781 0.0585938 L 224.757812 109.125 L 115.695312 224.707031 L 0.113281 115.640625 Z M 109.175781 0.0585938 " clip-rule="nonzero"/></clipPath><clipPath id="ea242fe7ad"><path d="M 109.175781 0.0585938 L 224.757812 109.125 L 115.695312 224.707031 L 0.113281 115.640625 Z M 109.175781 0.0585938 " clip-rule="nonzero"/></clipPath><clipPath id="9f9e85c27d"><path d="M 109.175781 0.0585938 L 224.757812 109.125 L 115.695312 224.707031 L 0.113281 115.640625 Z M 109.175781 0.0585938 " clip-rule="nonzero"/></clipPath><clipPath id="7767cd674c"><path d="M 197 91 L 224.761719 91 L 224.761719 110 L 197 110 Z M 197 91 " clip-rule="nonzero"/></clipPath><clipPath id="c99c20a961"><path d="M 109.175781 0.0585938 L 224.757812 109.125 L 115.695312 224.707031 L 0.113281 115.640625 Z M 109.175781 0.0585938 " clip-rule="nonzero"/></clipPath><clipPath id="4f62d5d495"><path d="M 109.175781 0.0585938 L 224.757812 109.125 L 115.695312 224.707031 L 0.113281 115.640625 Z M 109.175781 0.0585938 " clip-rule="nonzero"/></clipPath><clipPath id="ba3bd8d75e"><path d="M 109.175781 0.0585938 L 224.757812 109.125 L 115.695312 224.707031 L 0.113281 115.640625 Z M 109.175781 0.0585938 " clip-rule="nonzero"/></clipPath><clipPath id="dfc563f95c"><path d="M 88 110 L 116 110 L 116 128 L 88 128 Z M 88 110 " clip-rule="nonzero"/></clipPath><clipPath id="d24d124d55"><path d="M 109.175781 0.0585938 L 224.757812 109.125 L 115.695312 224.707031 L 0.113281 115.640625 Z M 109.175781 0.0585938 " clip-rule="nonzero"/></clipPath><clipPath id="69c4fbdcc2"><path d="M 109.175781 0.0585938 L 224.757812 109.125 L 115.695312 224.707031 L 0.113281 115.640625 Z M 109.175781 0.0585938 " clip-rule="nonzero"/></clipPath><clipPath id="981a33ea93"><path d="M 109.175781 0.0585938 L 224.757812 109.125 L 115.695312 224.707031 L 0.113281 115.640625 Z M 109.175781 0.0585938 " clip-rule="nonzero"/></clipPath></defs><g clip-path="url(#0dbe169835)"><g clip-path="url(#9ba78282ff)"><g clip-path="url(#f53cdfd829)"><g clip-path="url(#2be65c8c19)"><path fill="#000000" d="M 188.453125 139.007812 C 188.453125 139.007812 182.757812 133.398438 179.671875 132.28125 C 179.671875 132.28125 167.773438 129.054688 162.566406 130.792969 L 158.304688 122.253906 C 155.050781 116.488281 150.050781 114.515625 146.761719 112.917969 C 146.761719 112.917969 153.550781 123.929688 159.664062 133.15625 C 159.664062 133.15625 155.691406 136 156.621094 137.582031 C 158.195312 137.023438 159.632812 136.671875 160.9375 136.515625 C 163.277344 136.878906 164.144531 137.871094 165.261719 138.574219 L 164.964844 135.015625 C 173.210938 134.371094 182.015625 135.578125 188.453125 139.007812 Z M 188.453125 139.007812 " fill-opacity="1" fill-rule="evenodd"/></g></g></g></g><g clip-path="url(#4645d40473)"><g clip-path="url(#5ba4389565)"><g clip-path="url(#7b136d0e3d)"><g clip-path="url(#43ace584ca)"><path fill="#000000" d="M 132.6875 50.484375 C 132.6875 50.484375 126.992188 44.878906 123.90625 43.761719 C 123.90625 43.761719 112.007812 40.535156 106.800781 42.269531 L 102.539062 33.734375 C 99.285156 27.964844 94.289062 25.996094 90.996094 24.394531 C 90.996094 24.394531 97.785156 35.410156 103.898438 44.636719 C 103.898438 44.636719 99.925781 47.480469 100.855469 49.058594 C 102.429688 48.503906 103.867188 48.152344 105.171875 47.996094 C 107.511719 48.359375 108.378906 49.351562 109.496094 50.054688 L 109.199219 46.496094 C 117.445312 45.851562 126.25 47.058594 132.6875 50.484375 Z M 132.6875 50.484375 " fill-opacity="1" fill-rule="evenodd"/></g></g></g></g><g clip-path="url(#d78a77a7d4)"><g clip-path="url(#076a304d78)"><g clip-path="url(#3477121aed)"><g clip-path="url(#db30065586)"><path fill="#000000" d="M 64.210938 118 C 64.210938 118 58.515625 112.394531 55.429688 111.277344 C 55.429688 111.277344 43.53125 108.050781 38.324219 109.785156 L 34.0625 101.25 C 30.808594 95.484375 25.808594 93.511719 22.519531 91.914062 C 22.519531 91.914062 29.308594 102.925781 35.421875 112.152344 C 35.421875 112.152344 31.449219 114.996094 32.378906 116.578125 C 33.953125 116.019531 35.390625 115.667969 36.695312 115.511719 C 39.035156 115.875 39.902344 116.867188 41.019531 117.570312 L 40.722656 114.011719 C 48.96875 113.367188 57.773438 114.574219 64.210938 118 Z M 64.210938 118 " fill-opacity="1" fill-rule="evenodd"/></g></g></g></g><g clip-path="url(#57c1edcc56)"><g clip-path="url(#fc0576aa80)"><g clip-path="url(#ea242fe7ad)"><g clip-path="url(#9f9e85c27d)"><path fill="#000000" d="M 125.855469 205.675781 C 125.855469 205.675781 120.160156 200.070312 117.074219 198.953125 C 117.074219 198.953125 105.175781 195.726562 99.96875 197.460938 L 95.707031 188.925781 C 92.453125 183.160156 87.453125 181.1875 84.164062 179.589844 C 84.164062 179.589844 90.953125 190.601562 97.066406 199.828125 C 97.066406 199.828125 93.09375 202.671875 94.023438 204.253906 C 95.597656 203.695312 97.035156 203.34375 98.339844 203.1875 C 100.679688 203.550781 101.546875 204.542969 102.664062 205.246094 L 102.367188 201.6875 C 110.613281 201.042969 119.417969 202.25 125.855469 205.675781 Z M 125.855469 205.675781 " fill-opacity="1" fill-rule="evenodd"/></g></g></g></g><g clip-path="url(#7767cd674c)"><g clip-path="url(#c99c20a961)"><g clip-path="url(#4f62d5d495)"><g clip-path="url(#ba3bd8d75e)"><path fill="#000000" d="M 224.71875 109.078125 C 224.71875 109.078125 220.96875 105.386719 218.9375 104.652344 C 218.9375 104.652344 211.105469 102.527344 207.675781 103.671875 L 204.871094 98.050781 C 202.726562 94.253906 199.4375 92.957031 197.273438 91.902344 C 197.273438 91.902344 201.742188 99.152344 205.765625 105.230469 C 205.765625 105.230469 203.152344 107.101562 203.761719 108.140625 C 204.796875 107.773438 205.742188 107.542969 206.605469 107.441406 C 208.144531 107.679688 208.714844 108.332031 209.449219 108.796875 L 209.253906 106.453125 C 214.683594 106.027344 220.480469 106.824219 224.71875 109.078125 Z M 224.71875 109.078125 " fill-opacity="1" fill-rule="evenodd"/></g></g></g></g><g clip-path="url(#dfc563f95c)"><g clip-path="url(#d24d124d55)"><g clip-path="url(#69c4fbdcc2)"><g clip-path="url(#981a33ea93)"><path fill="#000000" d="M 115.992188 127.90625 C 115.992188 127.90625 112.242188 124.214844 110.207031 123.476562 C 110.207031 123.476562 102.378906 121.351562 98.949219 122.496094 L 96.144531 116.875 C 94 113.078125 90.710938 111.78125 88.542969 110.730469 C 88.542969 110.730469 93.015625 117.980469 97.039062 124.054688 C 97.039062 124.054688 94.421875 125.925781 95.035156 126.964844 C 96.070312 126.601562 97.015625 126.367188 97.875 126.265625 C 99.414062 126.503906 99.988281 127.15625 100.722656 127.621094 L 100.527344 125.277344 C 105.957031 124.851562 111.753906 125.648438 115.992188 127.90625 Z M 115.992188 127.90625 " fill-opacity="1" fill-rule="evenodd"/></g></g></g></g></svg>