<svg xmlns="http://www.w3.org/2000/svg" xmlns:xlink="http://www.w3.org/1999/xlink" width="1080" zoomAndPan="magnify" viewBox="0 0 810 1439.999935" height="1920" preserveAspectRatio="xMidYMid meet" version="1.0"><path fill="#a1bc80" d="M 194.300781 1424.128906 C 198.484375 1427.085938 202.578125 1429.914062 206.554688 1432.609375 C 207.875 1433.507812 209.226562 1434.328125 210.570312 1435.164062 C 210.570312 1435.164062 441.648438 1435.164062 614.953125 1435.164062 C 620.730469 1435.164062 626.445312 1435.164062 632.082031 1435.164062 C 678.8125 1435.554688 728.753906 1435.554688 776.707031 1435.164062 C 782.097656 1435.164062 786.722656 1435.164062 790.488281 1435.164062 C 790.515625 1435.164062 790.542969 1435.164062 790.570312 1435.164062 C 795.796875 1435.164062 800.351562 1435.398438 805.109375 1433.300781 C 798.855469 1410.828125 772.25 1396.847656 751.917969 1389.34375 C 691.117188 1366.914062 631.011719 1346.40625 572.679688 1317.417969 C 529.179688 1295.800781 479.144531 1268.160156 458.835938 1221.414062 C 452.574219 1207.007812 452.835938 1191.832031 457.039062 1178.210938 C 460.855469 1165.832031 467.90625 1154.449219 477.199219 1144.832031 C 493.214844 1128.261719 516.242188 1118.925781 537.085938 1110.160156 C 561.007812 1100.097656 585.789062 1091.316406 608.273438 1078.199219 C 625.636719 1068.066406 643.828125 1053.714844 646.382812 1032.355469 C 652.730469 979.304688 588.832031 950.851562 547.503906 938.015625 C 521.441406 929.921875 494.480469 925.304688 467.558594 921.140625 C 443.363281 917.402344 417.710938 916.113281 395.148438 905.800781 C 380.808594 899.246094 367.007812 884.710938 375.332031 868.164062 C 393.699219 831.664062 469.675781 832.292969 513.132812 824.925781 C 524.070312 823.070312 515.5625 814.546875 508.382812 813.625 C 474.171875 809.222656 439.792969 811.066406 405.492188 813.324219 C 373.722656 815.417969 341.964844 820.148438 311.453125 829.425781 C 285.203125 837.402344 256.0625 846.953125 235.960938 866.621094 C 229.027344 873.402344 223.683594 882.320312 223.136719 892.003906 C 222.632812 900.984375 226.296875 909.8125 231.679688 917.015625 C 246.546875 936.914062 269.257812 949.082031 291.667969 958.59375 C 302.742188 963.296875 314.332031 966.828125 325.347656 971.621094 C 334.410156 975.5625 352.609375 983.308594 357.375 992.585938 C 359.605469 996.925781 366.125 1003.441406 358.316406 1013.589844 C 354.933594 1019.273438 348.714844 1023.089844 342.566406 1026.417969 C 295.65625 1051.804688 241.367188 1062.058594 188.285156 1083.273438 C 154.890625 1096.617188 113.75 1116.644531 84.601562 1148.300781 C 80.4375 1152.824219 76.519531 1157.582031 72.902344 1162.597656 C -0.0585938 1263.71875 113.828125 1367.28125 194.300781 1424.128906 Z M 194.300781 1424.128906 " fill-opacity="1" fill-rule="nonzero"/><path fill="#9b6d3e" d="M 703.941406 1439.796875 C 679.597656 1439.796875 655.410156 1439.703125 632.046875 1439.507812 L 210.570312 1439.507812 C 209.761719 1439.507812 208.964844 1439.277344 208.277344 1438.851562 L 207.515625 1438.378906 C 206.375 1437.671875 205.234375 1436.964844 204.113281 1436.203125 C 200.121094 1433.492188 196.003906 1430.648438 191.796875 1427.675781 C 191.796875 1427.675781 191.792969 1427.675781 191.792969 1427.675781 C 132.140625 1385.535156 58.566406 1320.535156 46.816406 1250.160156 C 41.527344 1218.453125 49.117188 1188.140625 69.378906 1160.058594 C 73 1155.039062 77.046875 1150.09375 81.410156 1145.359375 C 104.980469 1119.753906 139.414062 1098.125 186.675781 1079.238281 C 207.726562 1070.828125 229.070312 1064.09375 249.714844 1057.578125 C 281.960938 1047.402344 312.421875 1037.792969 340.496094 1022.597656 C 345.78125 1019.738281 351.664062 1016.277344 354.585938 1011.367188 C 354.671875 1011.21875 354.769531 1011.078125 354.875 1010.941406 C 359.675781 1004.703125 357.472656 1001.128906 354.917969 996.988281 C 354.386719 996.121094 353.894531 995.316406 353.511719 994.570312 C 349.558594 986.875 332.445312 979.4375 324.21875 975.863281 L 323.617188 975.601562 C 318.015625 973.164062 312.097656 971.003906 306.378906 968.910156 C 300.976562 966.9375 295.394531 964.894531 289.972656 962.59375 C 269.75 954.007812 244.453125 941.363281 228.199219 919.613281 C 221.621094 910.808594 218.285156 900.917969 218.800781 891.761719 C 219.355469 881.914062 224.371094 871.882812 232.925781 863.515625 C 253.140625 843.738281 281.007812 834.136719 310.1875 825.269531 C 338.503906 816.664062 369.582031 811.339844 405.207031 808.992188 C 440.480469 806.667969 474.953125 804.941406 508.9375 809.316406 C 515.339844 810.140625 522.589844 815.34375 522.703125 821.074219 C 522.742188 823.0625 521.960938 827.835938 513.855469 829.207031 C 504.570312 830.78125 493.910156 831.984375 482.625 833.257812 C 442.539062 837.785156 392.648438 843.414062 379.210938 870.117188 C 376.910156 874.695312 376.546875 879.3125 378.140625 883.84375 C 380.570312 890.757812 387.777344 897.65625 396.953125 901.851562 C 413.980469 909.636719 433.339844 912.164062 452.0625 914.609375 C 457.375 915.304688 462.875 916.023438 468.222656 916.851562 C 494.183594 920.863281 521.792969 925.484375 548.792969 933.871094 C 589.753906 946.589844 657.453125 976.371094 650.695312 1032.871094 C 647.742188 1057.542969 626.320312 1072.699219 610.464844 1081.949219 C 593.023438 1092.125 574.089844 1099.785156 555.777344 1107.191406 C 550.089844 1109.492188 544.40625 1111.792969 538.769531 1114.164062 L 536.703125 1115.03125 C 516.296875 1123.605469 495.191406 1132.46875 480.324219 1147.851562 C 471.316406 1157.171875 464.695312 1168.113281 461.1875 1179.492188 C 458.1875 1189.210938 456.039062 1204.078125 462.816406 1219.6875 C 482.394531 1264.742188 530.789062 1291.75 574.613281 1313.53125 C 623.695312 1337.921875 673.011719 1355.90625 725.21875 1374.945312 C 734.601562 1378.367188 744 1381.796875 753.421875 1385.269531 C 775.195312 1393.304688 802.566406 1407.957031 809.292969 1432.140625 C 809.871094 1434.21875 808.835938 1436.40625 806.859375 1437.277344 C 801.695312 1439.550781 796.761719 1439.519531 791.984375 1439.511719 L 776.707031 1439.507812 C 752.757812 1439.699219 728.273438 1439.796875 703.941406 1439.796875 Z M 211.808594 1430.820312 L 632.082031 1430.820312 C 678.789062 1431.210938 728.777344 1431.210938 776.671875 1430.820312 L 792.019531 1430.824219 C 794.816406 1430.839844 797.238281 1430.847656 799.527344 1430.457031 C 791.375 1411.085938 765.660156 1399.042969 750.414062 1393.417969 C 741.003906 1389.945312 731.613281 1386.523438 722.242188 1383.105469 C 672.109375 1364.820312 620.265625 1345.917969 570.75 1321.308594 C 525.550781 1298.84375 475.59375 1270.882812 454.851562 1223.144531 C 448.648438 1208.863281 447.96875 1192.882812 452.886719 1176.929688 C 456.796875 1164.253906 464.125 1152.109375 474.078125 1141.8125 C 490.1875 1125.148438 513.109375 1115.519531 533.339844 1107.023438 L 535.402344 1106.15625 C 541.074219 1103.769531 546.792969 1101.457031 552.519531 1099.140625 C 570.546875 1091.847656 589.183594 1084.308594 606.085938 1074.445312 C 628.738281 1061.230469 640.175781 1047.691406 642.074219 1031.839844 C 648.085938 981.585938 584.597656 954.085938 546.21875 942.164062 C 519.78125 933.953125 492.539062 929.398438 466.894531 925.433594 C 461.648438 924.621094 456.203125 923.910156 450.9375 923.222656 C 431.578125 920.695312 411.558594 918.078125 393.34375 909.75 C 381.925781 904.53125 373.179688 895.921875 369.945312 886.722656 C 367.574219 879.976562 368.097656 872.882812 371.457031 866.210938 C 387.003906 835.3125 439.480469 829.386719 481.648438 824.628906 C 492.8125 823.367188 503.359375 822.179688 512.40625 820.644531 C 512.703125 820.59375 512.964844 820.539062 513.191406 820.484375 C 512.023438 819.441406 509.910156 818.199219 507.832031 817.933594 C 474.570312 813.652344 441.933594 815.277344 405.777344 817.660156 C 370.824219 819.960938 340.386719 825.167969 312.71875 833.578125 C 284.605469 842.121094 257.8125 851.316406 239 869.722656 C 232 876.570312 227.90625 884.570312 227.472656 892.25 C 227.070312 899.371094 229.800781 907.242188 235.160156 914.414062 C 250.164062 934.5 274.148438 946.441406 293.363281 954.597656 C 298.585938 956.8125 304.0625 958.816406 309.359375 960.753906 C 315.199219 962.890625 321.238281 965.097656 327.082031 967.636719 L 327.683594 967.898438 C 341.316406 973.824219 356.28125 980.953125 361.238281 990.601562 C 361.527344 991.167969 361.910156 991.773438 362.3125 992.429688 C 365.058594 996.882812 370.152344 1005.144531 361.914062 1016.035156 C 357.839844 1022.710938 350.863281 1026.863281 344.632812 1030.234375 C 315.828125 1045.828125 284.980469 1055.558594 252.328125 1065.863281 C 231.835938 1072.328125 210.648438 1079.011719 189.898438 1087.304688 C 143.871094 1105.699219 110.472656 1126.613281 87.800781 1151.242188 C 83.667969 1155.726562 79.839844 1160.402344 76.421875 1165.140625 C 57.566406 1191.273438 50.488281 1219.394531 55.386719 1248.730469 C 66.636719 1316.148438 138.5 1379.398438 196.808594 1420.582031 C 200.96875 1423.523438 205.042969 1426.335938 208.992188 1429.019531 C 209.921875 1429.648438 210.863281 1430.234375 211.808594 1430.820312 Z M 211.808594 1430.820312 " fill-opacity="1" fill-rule="nonzero"/></svg>