<svg xmlns="http://www.w3.org/2000/svg" xmlns:xlink="http://www.w3.org/1999/xlink" width="1080" zoomAndPan="magnify" viewBox="0 0 810 225" height="300" preserveAspectRatio="xMidYMid meet" version="1.0"><defs><clipPath id="b19361c8ad"><path d="M 0 27.5625 L 810 27.5625 L 810 224.8125 L 0 224.8125 Z M 0 27.5625 " clip-rule="nonzero"/></clipPath><clipPath id="2b93556313"><path d="M 0 113 L 810 113 L 810 224.8125 L 0 224.8125 Z M 0 113 " clip-rule="nonzero"/></clipPath></defs><g clip-path="url(#b19361c8ad)"><path fill="#000000" d="M 0.0898438 27.554688 L 809.886719 27.554688 L 809.886719 224.984375 L 0.0898438 224.984375 Z M 0.0898438 27.554688 " fill-opacity="1" fill-rule="nonzero"/></g><path fill="#484d59" d="M 0.0898438 81.871094 L 809.886719 81.871094 L 809.886719 109.519531 L 0.0898438 109.519531 Z M 0.0898438 81.871094 " fill-opacity="1" fill-rule="nonzero"/><g clip-path="url(#2b93556313)"><path fill="#666456" d="M 0.0898438 113.421875 L 809.886719 113.421875 L 809.886719 224.984375 L 0.0898438 224.984375 Z M 0.0898438 113.421875 " fill-opacity="1" fill-rule="nonzero"/></g><path fill="#778cc2" d="M 0.0898438 149.523438 L 50.792969 149.523438 L 50.792969 167.089844 L 0.0898438 167.089844 Z M 0.0898438 149.523438 " fill-opacity="1" fill-rule="nonzero"/><path fill="#778cc2" d="M 100.554688 149.523438 L 182.519531 149.523438 L 182.519531 167.089844 L 100.554688 167.089844 Z M 100.554688 149.523438 " fill-opacity="1" fill-rule="nonzero"/><path fill="#778cc2" d="M 232.28125 149.523438 L 314.242188 149.523438 L 314.242188 167.089844 L 232.28125 167.089844 Z M 232.28125 149.523438 " fill-opacity="1" fill-rule="nonzero"/><path fill="#778cc2" d="M 364.007812 149.523438 L 445.96875 149.523438 L 445.96875 167.089844 L 364.007812 167.089844 Z M 364.007812 149.523438 " fill-opacity="1" fill-rule="nonzero"/><path fill="#778cc2" d="M 495.734375 149.523438 L 577.695312 149.523438 L 577.695312 167.089844 L 495.734375 167.089844 Z M 495.734375 149.523438 " fill-opacity="1" fill-rule="nonzero"/><path fill="#778cc2" d="M 627.457031 149.523438 L 709.421875 149.523438 L 709.421875 167.089844 L 627.457031 167.089844 Z M 627.457031 149.523438 " fill-opacity="1" fill-rule="nonzero"/><path fill="#778cc2" d="M 759.183594 149.523438 L 809.886719 149.523438 L 809.886719 167.089844 L 759.183594 167.089844 Z M 759.183594 149.523438 " fill-opacity="1" fill-rule="nonzero"/><path fill="#778cc2" d="M 0.0898438 31.460938 L 809.886719 31.460938 L 809.886719 76.34375 L 0.0898438 76.34375 Z M 0.0898438 31.460938 " fill-opacity="1" fill-rule="nonzero"/><path fill="#666456" d="M 42.738281 31.460938 L 34.824219 76.34375 L 40.769531 76.34375 L 48.683594 31.460938 Z M 42.738281 31.460938 " fill-opacity="1" fill-rule="nonzero"/><path fill="#666456" d="M 102.132812 31.460938 L 96.621094 76.34375 L 102.519531 76.34375 L 108.03125 31.460938 Z M 102.132812 31.460938 " fill-opacity="1" fill-rule="nonzero"/><path fill="#666456" d="M 161.902344 31.460938 L 157.972656 76.34375 L 163.851562 76.34375 L 167.777344 31.460938 Z M 161.902344 31.460938 " fill-opacity="1" fill-rule="nonzero"/><path fill="#666456" d="M 221.667969 31.460938 L 219.316406 76.34375 L 225.179688 76.34375 L 227.53125 31.460938 Z M 221.667969 31.460938 " fill-opacity="1" fill-rule="nonzero"/><path fill="#666456" d="M 281.433594 31.460938 L 280.652344 76.34375 L 286.507812 76.34375 L 287.289062 31.460938 Z M 281.433594 31.460938 " fill-opacity="1" fill-rule="nonzero"/><path fill="#666456" d="M 341.566406 31.460938 L 347.417969 31.460938 L 347.417969 76.34375 L 341.566406 76.34375 Z M 341.566406 31.460938 " fill-opacity="1" fill-rule="nonzero"/><path fill="#666456" d="M 402.0625 31.460938 L 407.914062 31.460938 L 407.914062 76.34375 L 402.0625 76.34375 Z M 402.0625 31.460938 " fill-opacity="1" fill-rule="nonzero"/><path fill="#666456" d="M 462.558594 31.460938 L 468.410156 31.460938 L 468.410156 76.34375 L 462.558594 76.34375 Z M 462.558594 31.460938 " fill-opacity="1" fill-rule="nonzero"/><path fill="#666456" d="M 522.6875 31.460938 L 523.46875 76.34375 L 529.324219 76.34375 L 528.542969 31.460938 Z M 522.6875 31.460938 " fill-opacity="1" fill-rule="nonzero"/><path fill="#666456" d="M 582.445312 31.460938 L 584.796875 76.34375 L 590.660156 76.34375 L 588.308594 31.460938 Z M 582.445312 31.460938 " fill-opacity="1" fill-rule="nonzero"/><path fill="#666456" d="M 642.199219 31.460938 L 646.125 76.34375 L 652.003906 76.34375 L 648.074219 31.460938 Z M 642.199219 31.460938 " fill-opacity="1" fill-rule="nonzero"/><path fill="#666456" d="M 701.945312 31.460938 L 707.453125 76.34375 L 713.351562 76.34375 L 707.84375 31.460938 Z M 701.945312 31.460938 " fill-opacity="1" fill-rule="nonzero"/><path fill="#666456" d="M 761.292969 31.460938 L 769.207031 76.34375 L 775.152344 76.34375 L 767.238281 31.460938 Z M 761.292969 31.460938 " fill-opacity="1" fill-rule="nonzero"/></svg>