<svg xmlns="http://www.w3.org/2000/svg" xmlns:xlink="http://www.w3.org/1999/xlink" width="1080" zoomAndPan="magnify" viewBox="0 0 810 1439.999935" height="1920" preserveAspectRatio="xMidYMid meet" version="1.0"><defs><clipPath id="d08c456a2c"><path d="M 799 647 L 809.996094 647 L 809.996094 659 L 799 659 Z M 799 647 " clip-rule="nonzero"/></clipPath><clipPath id="2b93000f2c"><path d="M 3.746094 885 L 20 885 L 20 902 L 3.746094 902 Z M 3.746094 885 " clip-rule="nonzero"/></clipPath></defs><path fill="#fcfcfd" d="M 734.492188 195.273438 L 723.570312 196.859375 C 723.066406 196.933594 722.609375 197.160156 722.246094 197.523438 C 721.890625 197.890625 721.648438 198.351562 721.578125 198.847656 L 720 209.761719 L 718.414062 198.84375 C 718.339844 198.34375 718.113281 197.882812 717.746094 197.519531 C 717.390625 197.164062 716.921875 196.921875 716.425781 196.855469 L 705.503906 195.273438 L 716.429688 193.6875 C 716.929688 193.613281 717.390625 193.386719 717.753906 193.023438 C 718.109375 192.660156 718.351562 192.199219 718.417969 191.699219 L 720 180.785156 L 721.585938 191.703125 C 721.660156 192.207031 721.886719 192.664062 722.25 193.027344 C 722.605469 193.382812 723.078125 193.628906 723.574219 193.695312 Z M 734.492188 195.273438 " fill-opacity="1" fill-rule="nonzero"/><path fill="#fcfcfd" d="M 417.320312 209.765625 L 406.394531 211.351562 C 405.894531 211.425781 405.433594 211.652344 405.070312 212.015625 C 404.714844 212.382812 404.472656 212.84375 404.40625 213.339844 L 402.824219 224.253906 L 401.238281 213.335938 C 401.164062 212.832031 400.9375 212.375 400.574219 212.011719 C 400.21875 211.65625 399.75 211.414062 399.25 211.347656 L 388.332031 209.765625 L 399.253906 208.179688 C 399.757812 208.105469 400.214844 207.878906 400.578125 207.515625 C 400.933594 207.152344 401.175781 206.691406 401.246094 206.191406 L 402.824219 195.273438 L 404.410156 206.195312 C 404.484375 206.695312 404.710938 207.152344 405.078125 207.519531 C 405.433594 207.875 405.902344 208.117188 406.402344 208.183594 Z M 417.320312 209.765625 " fill-opacity="1" fill-rule="nonzero"/><path fill="#fcfcfd" d="M 575.398438 1351.722656 L 554.3125 1354.785156 C 553.347656 1354.929688 552.457031 1355.367188 551.753906 1356.070312 C 551.066406 1356.769531 550.601562 1357.660156 550.46875 1358.628906 L 547.421875 1379.695312 L 544.359375 1358.613281 C 544.214844 1357.648438 543.777344 1356.757812 543.074219 1356.054688 C 542.382812 1355.367188 541.484375 1354.902344 540.515625 1354.769531 L 519.441406 1351.722656 L 540.53125 1348.664062 C 541.496094 1348.519531 542.382812 1348.082031 543.089844 1347.378906 C 543.777344 1346.679688 544.242188 1345.789062 544.375 1344.820312 L 547.421875 1323.753906 L 550.480469 1344.832031 C 550.628906 1345.800781 551.066406 1346.6875 551.769531 1347.390625 C 552.457031 1348.082031 553.359375 1348.546875 554.328125 1348.679688 Z M 575.398438 1351.722656 " fill-opacity="1" fill-rule="nonzero"/><path fill="#fcfcfd" d="M 200.589844 1225.027344 L 185.597656 1227.203125 C 184.910156 1227.304688 184.28125 1227.617188 183.78125 1228.117188 C 183.289062 1228.613281 182.960938 1229.246094 182.867188 1229.933594 L 180.699219 1244.90625 L 178.523438 1229.921875 C 178.421875 1229.234375 178.109375 1228.605469 177.609375 1228.105469 C 177.117188 1227.613281 176.480469 1227.285156 175.792969 1227.191406 L 160.8125 1225.023438 L 175.800781 1222.847656 C 176.488281 1222.746094 177.121094 1222.433594 177.621094 1221.933594 C 178.109375 1221.4375 178.441406 1220.804688 178.535156 1220.117188 L 180.703125 1205.144531 L 182.878906 1220.128906 C 182.980469 1220.816406 183.292969 1221.445312 183.792969 1221.945312 C 184.28125 1222.4375 184.921875 1222.765625 185.609375 1222.859375 Z M 200.589844 1225.027344 " fill-opacity="1" fill-rule="nonzero"/><path fill="#fcfcfd" d="M 721.011719 125.1875 L 693.828125 129.132812 C 692.578125 129.320312 691.4375 129.886719 690.53125 130.789062 C 689.640625 131.695312 689.042969 132.839844 688.871094 134.085938 L 684.941406 161.242188 L 680.996094 134.070312 C 680.804688 132.820312 680.242188 131.675781 679.335938 130.773438 C 678.449219 129.886719 677.289062 129.285156 676.039062 129.113281 L 648.875 125.1875 L 676.058594 121.242188 C 677.308594 121.054688 678.453125 120.492188 679.359375 119.585938 C 680.246094 118.679688 680.84375 117.535156 681.015625 116.289062 L 684.945312 89.132812 L 688.894531 116.308594 C 689.082031 117.554688 689.644531 118.699219 690.550781 119.601562 C 691.4375 120.492188 692.601562 121.089844 693.847656 121.261719 Z M 721.011719 125.1875 " fill-opacity="1" fill-rule="nonzero"/><path fill="#fcfcfd" d="M 230.25 941.980469 L 207.132812 945.335938 C 206.074219 945.496094 205.101562 945.976562 204.328125 946.746094 C 203.574219 947.515625 203.0625 948.488281 202.917969 949.550781 L 199.578125 972.644531 L 196.21875 949.535156 C 196.0625 948.476562 195.582031 947.503906 194.808594 946.730469 C 194.054688 945.976562 193.066406 945.46875 192.003906 945.320312 L 168.902344 941.980469 L 192.019531 938.625 C 193.078125 938.46875 194.050781 937.988281 194.824219 937.214844 C 195.578125 936.445312 196.089844 935.472656 196.234375 934.414062 L 199.574219 911.316406 L 202.933594 934.425781 C 203.089844 935.484375 203.570312 936.457031 204.34375 937.230469 C 205.097656 937.984375 206.085938 938.492188 207.144531 938.640625 Z M 230.25 941.980469 " fill-opacity="1" fill-rule="nonzero"/><path fill="#fcfcfd" d="M 184.410156 661.628906 L 159.257812 665.28125 C 158.105469 665.453125 157.046875 665.976562 156.210938 666.816406 C 155.386719 667.652344 154.835938 668.710938 154.675781 669.863281 L 151.039062 694.988281 L 147.390625 669.847656 C 147.21875 668.695312 146.695312 667.632812 145.855469 666.796875 C 145.03125 665.976562 143.960938 665.421875 142.804688 665.265625 L 117.671875 661.628906 L 142.820312 657.980469 C 143.976562 657.808594 145.035156 657.285156 145.871094 656.445312 C 146.695312 655.609375 147.246094 654.550781 147.40625 653.398438 L 151.039062 628.273438 L 154.691406 653.414062 C 154.863281 654.566406 155.386719 655.628906 156.226562 656.464844 C 157.046875 657.285156 158.121094 657.839844 159.277344 657.996094 Z M 184.410156 661.628906 " fill-opacity="1" fill-rule="nonzero"/><path fill="#fcfcfd" d="M 658.992188 364.871094 C 658.460938 364.871094 657.933594 364.820312 657.414062 364.714844 C 656.890625 364.613281 656.386719 364.457031 655.894531 364.253906 C 655.40625 364.050781 654.9375 363.800781 654.496094 363.507812 C 654.054688 363.210938 653.648438 362.878906 653.269531 362.503906 C 652.894531 362.125 652.558594 361.71875 652.265625 361.277344 C 651.96875 360.835938 651.722656 360.367188 651.519531 359.878906 C 651.316406 359.386719 651.160156 358.882812 651.058594 358.359375 C 650.953125 357.839844 650.902344 357.316406 650.902344 356.785156 C 650.902344 356.253906 650.953125 355.726562 651.058594 355.207031 C 651.160156 354.683594 651.316406 354.179688 651.519531 353.6875 C 651.722656 353.199219 651.96875 352.730469 652.265625 352.289062 C 652.558594 351.847656 652.894531 351.441406 653.269531 351.066406 C 653.648438 350.691406 654.054688 350.355469 654.496094 350.058594 C 654.9375 349.765625 655.40625 349.515625 655.894531 349.3125 C 656.386719 349.109375 656.890625 348.957031 657.414062 348.851562 C 657.933594 348.75 658.460938 348.695312 658.992188 348.695312 C 659.523438 348.695312 660.046875 348.75 660.570312 348.851562 C 661.089844 348.957031 661.597656 349.109375 662.085938 349.3125 C 662.578125 349.515625 663.042969 349.765625 663.484375 350.058594 C 663.925781 350.355469 664.335938 350.691406 664.710938 351.066406 C 665.085938 351.441406 665.421875 351.847656 665.71875 352.289062 C 666.011719 352.730469 666.261719 353.199219 666.464844 353.6875 C 666.667969 354.179688 666.820312 354.683594 666.925781 355.207031 C 667.027344 355.726562 667.082031 356.253906 667.082031 356.785156 C 667.082031 357.316406 667.027344 357.839844 666.925781 358.359375 C 666.820312 358.882812 666.667969 359.386719 666.464844 359.878906 C 666.261719 360.367188 666.011719 360.835938 665.71875 361.277344 C 665.421875 361.71875 665.085938 362.125 664.710938 362.503906 C 664.335938 362.878906 663.925781 363.210938 663.484375 363.507812 C 663.042969 363.800781 662.578125 364.050781 662.085938 364.253906 C 661.597656 364.457031 661.089844 364.613281 660.570312 364.714844 C 660.046875 364.820312 659.523438 364.871094 658.992188 364.871094 Z M 658.992188 364.871094 " fill-opacity="1" fill-rule="nonzero"/><path fill="#fcfcfd" d="M 710.226562 408 C 709.871094 408 709.519531 407.96875 709.171875 407.898438 C 708.824219 407.828125 708.488281 407.726562 708.160156 407.589844 C 707.832031 407.457031 707.523438 407.289062 707.230469 407.09375 C 706.933594 406.894531 706.660156 406.671875 706.410156 406.421875 C 706.160156 406.171875 705.9375 405.898438 705.742188 405.605469 C 705.542969 405.3125 705.378906 405 705.242188 404.671875 C 705.105469 404.347656 705.003906 404.007812 704.933594 403.660156 C 704.867188 403.316406 704.832031 402.964844 704.832031 402.609375 C 704.832031 402.257812 704.867188 401.90625 704.933594 401.558594 C 705.003906 401.210938 705.105469 400.875 705.242188 400.546875 C 705.378906 400.21875 705.542969 399.910156 705.742188 399.613281 C 705.9375 399.320312 706.160156 399.046875 706.410156 398.796875 C 706.660156 398.546875 706.933594 398.324219 707.230469 398.128906 C 707.523438 397.929688 707.832031 397.765625 708.160156 397.628906 C 708.488281 397.492188 708.824219 397.390625 709.171875 397.324219 C 709.519531 397.253906 709.871094 397.21875 710.226562 397.21875 C 710.578125 397.21875 710.929688 397.253906 711.277344 397.324219 C 711.625 397.390625 711.960938 397.492188 712.289062 397.628906 C 712.617188 397.765625 712.925781 397.929688 713.222656 398.128906 C 713.515625 398.324219 713.789062 398.546875 714.039062 398.796875 C 714.289062 399.046875 714.511719 399.320312 714.707031 399.613281 C 714.90625 399.910156 715.070312 400.21875 715.207031 400.546875 C 715.34375 400.875 715.445312 401.210938 715.515625 401.558594 C 715.582031 401.90625 715.617188 402.257812 715.617188 402.609375 C 715.617188 402.964844 715.582031 403.316406 715.515625 403.660156 C 715.445312 404.007812 715.34375 404.347656 715.207031 404.671875 C 715.070312 405 714.90625 405.3125 714.707031 405.605469 C 714.511719 405.898438 714.289062 406.171875 714.039062 406.421875 C 713.789062 406.671875 713.515625 406.894531 713.222656 407.09375 C 712.925781 407.289062 712.617188 407.457031 712.289062 407.589844 C 711.960938 407.726562 711.625 407.828125 711.277344 407.898438 C 710.929688 407.96875 710.578125 408 710.226562 408 Z M 710.226562 408 " fill-opacity="1" fill-rule="nonzero"/><path fill="#fcfcfd" d="M 192.183594 76.433594 C 191.828125 76.433594 191.480469 76.398438 191.132812 76.328125 C 190.785156 76.257812 190.445312 76.15625 190.121094 76.023438 C 189.792969 75.886719 189.480469 75.71875 189.1875 75.523438 C 188.894531 75.328125 188.621094 75.101562 188.371094 74.851562 C 188.121094 74.601562 187.894531 74.332031 187.699219 74.035156 C 187.503906 73.742188 187.335938 73.429688 187.199219 73.105469 C 187.066406 72.777344 186.964844 72.441406 186.894531 72.09375 C 186.824219 71.746094 186.789062 71.394531 186.789062 71.039062 C 186.789062 70.6875 186.824219 70.335938 186.894531 69.988281 C 186.964844 69.640625 187.066406 69.304688 187.199219 68.976562 C 187.335938 68.652344 187.503906 68.339844 187.699219 68.046875 C 187.894531 67.75 188.121094 67.480469 188.371094 67.226562 C 188.621094 66.976562 188.894531 66.753906 189.1875 66.558594 C 189.480469 66.359375 189.792969 66.195312 190.121094 66.058594 C 190.445312 65.925781 190.785156 65.820312 191.132812 65.753906 C 191.480469 65.683594 191.828125 65.648438 192.183594 65.648438 C 192.539062 65.648438 192.886719 65.683594 193.234375 65.753906 C 193.582031 65.820312 193.921875 65.925781 194.246094 66.058594 C 194.574219 66.195312 194.886719 66.359375 195.179688 66.558594 C 195.472656 66.753906 195.746094 66.976562 195.996094 67.226562 C 196.246094 67.480469 196.472656 67.75 196.667969 68.046875 C 196.863281 68.339844 197.03125 68.652344 197.164062 68.976562 C 197.300781 69.304688 197.402344 69.640625 197.472656 69.988281 C 197.542969 70.335938 197.578125 70.6875 197.578125 71.039062 C 197.578125 71.394531 197.542969 71.746094 197.472656 72.09375 C 197.402344 72.441406 197.300781 72.777344 197.164062 73.105469 C 197.03125 73.429688 196.863281 73.742188 196.667969 74.035156 C 196.472656 74.332031 196.246094 74.601562 195.996094 74.851562 C 195.746094 75.101562 195.472656 75.328125 195.179688 75.523438 C 194.886719 75.71875 194.574219 75.886719 194.246094 76.023438 C 193.921875 76.15625 193.582031 76.257812 193.234375 76.328125 C 192.886719 76.398438 192.539062 76.433594 192.183594 76.433594 Z M 192.183594 76.433594 " fill-opacity="1" fill-rule="nonzero"/><path fill="#fcfcfd" d="M 413.609375 521.21875 C 413.257812 521.21875 412.90625 521.1875 412.558594 521.117188 C 412.210938 521.046875 411.875 520.945312 411.546875 520.808594 C 411.21875 520.675781 410.910156 520.507812 410.613281 520.3125 C 410.320312 520.113281 410.046875 519.890625 409.796875 519.640625 C 409.546875 519.390625 409.324219 519.117188 409.125 518.824219 C 408.929688 518.53125 408.765625 518.21875 408.628906 517.890625 C 408.492188 517.566406 408.390625 517.226562 408.320312 516.882812 C 408.253906 516.535156 408.21875 516.183594 408.21875 515.828125 C 408.21875 515.476562 408.253906 515.125 408.320312 514.777344 C 408.390625 514.429688 408.492188 514.09375 408.628906 513.765625 C 408.765625 513.4375 408.929688 513.128906 409.125 512.832031 C 409.324219 512.539062 409.546875 512.265625 409.796875 512.015625 C 410.046875 511.765625 410.320312 511.542969 410.613281 511.347656 C 410.910156 511.148438 411.21875 510.984375 411.546875 510.847656 C 411.875 510.710938 412.210938 510.609375 412.558594 510.542969 C 412.90625 510.472656 413.257812 510.4375 413.609375 510.4375 C 413.964844 510.4375 414.316406 510.472656 414.664062 510.542969 C 415.011719 510.609375 415.347656 510.710938 415.675781 510.847656 C 416.003906 510.984375 416.3125 511.148438 416.605469 511.347656 C 416.902344 511.542969 417.175781 511.765625 417.425781 512.015625 C 417.675781 512.265625 417.898438 512.539062 418.09375 512.832031 C 418.292969 513.128906 418.457031 513.4375 418.59375 513.765625 C 418.730469 514.09375 418.832031 514.429688 418.898438 514.777344 C 418.96875 515.125 419.003906 515.476562 419.003906 515.828125 C 419.003906 516.183594 418.96875 516.535156 418.898438 516.882812 C 418.832031 517.226562 418.730469 517.566406 418.59375 517.890625 C 418.457031 518.21875 418.292969 518.53125 418.09375 518.824219 C 417.898438 519.117188 417.675781 519.390625 417.425781 519.640625 C 417.175781 519.890625 416.902344 520.113281 416.605469 520.3125 C 416.3125 520.507812 416.003906 520.675781 415.675781 520.808594 C 415.347656 520.945312 415.011719 521.046875 414.664062 521.117188 C 414.316406 521.1875 413.964844 521.21875 413.609375 521.21875 Z M 413.609375 521.21875 " fill-opacity="1" fill-rule="nonzero"/><path fill="#fcfcfd" d="M 117.667969 186.175781 C 117.316406 186.175781 116.964844 186.140625 116.617188 186.074219 C 116.269531 186.003906 115.933594 185.902344 115.605469 185.765625 C 115.277344 185.628906 114.96875 185.464844 114.671875 185.269531 C 114.378906 185.070312 114.105469 184.847656 113.855469 184.597656 C 113.605469 184.347656 113.382812 184.074219 113.183594 183.78125 C 112.988281 183.484375 112.820312 183.175781 112.6875 182.847656 C 112.550781 182.519531 112.449219 182.183594 112.378906 181.835938 C 112.308594 181.488281 112.277344 181.140625 112.277344 180.785156 C 112.277344 180.429688 112.308594 180.082031 112.378906 179.734375 C 112.449219 179.386719 112.550781 179.046875 112.6875 178.722656 C 112.820312 178.394531 112.988281 178.082031 113.183594 177.789062 C 113.382812 177.496094 113.605469 177.222656 113.855469 176.972656 C 114.105469 176.722656 114.378906 176.5 114.671875 176.300781 C 114.96875 176.105469 115.277344 175.9375 115.605469 175.804688 C 115.933594 175.667969 116.269531 175.566406 116.617188 175.496094 C 116.964844 175.429688 117.316406 175.394531 117.667969 175.394531 C 118.023438 175.394531 118.375 175.429688 118.722656 175.496094 C 119.066406 175.566406 119.40625 175.667969 119.734375 175.804688 C 120.058594 175.9375 120.371094 176.105469 120.664062 176.300781 C 120.960938 176.5 121.230469 176.722656 121.480469 176.972656 C 121.734375 177.222656 121.957031 177.496094 122.152344 177.789062 C 122.351562 178.082031 122.515625 178.394531 122.652344 178.722656 C 122.785156 179.046875 122.890625 179.386719 122.957031 179.734375 C 123.027344 180.082031 123.0625 180.429688 123.0625 180.785156 C 123.0625 181.140625 123.027344 181.488281 122.957031 181.835938 C 122.890625 182.183594 122.785156 182.519531 122.652344 182.847656 C 122.515625 183.175781 122.351562 183.484375 122.152344 183.78125 C 121.957031 184.074219 121.734375 184.347656 121.480469 184.597656 C 121.230469 184.847656 120.960938 185.070312 120.664062 185.269531 C 120.371094 185.464844 120.058594 185.628906 119.734375 185.765625 C 119.40625 185.902344 119.066406 186.003906 118.722656 186.074219 C 118.375 186.140625 118.023438 186.175781 117.667969 186.175781 Z M 117.667969 186.175781 " fill-opacity="1" fill-rule="nonzero"/><path fill="#fcfcfd" d="M 486.417969 753.050781 C 486.0625 753.050781 485.710938 753.015625 485.363281 752.945312 C 485.015625 752.875 484.679688 752.773438 484.351562 752.640625 C 484.023438 752.503906 483.714844 752.335938 483.421875 752.140625 C 483.125 751.945312 482.851562 751.722656 482.601562 751.46875 C 482.351562 751.21875 482.128906 750.949219 481.933594 750.652344 C 481.734375 750.359375 481.570312 750.046875 481.433594 749.722656 C 481.296875 749.394531 481.195312 749.058594 481.125 748.710938 C 481.058594 748.363281 481.023438 748.011719 481.023438 747.660156 C 481.023438 747.304688 481.058594 746.953125 481.125 746.605469 C 481.195312 746.257812 481.296875 745.921875 481.433594 745.59375 C 481.570312 745.269531 481.734375 744.957031 481.933594 744.664062 C 482.128906 744.367188 482.351562 744.097656 482.601562 743.847656 C 482.851562 743.59375 483.125 743.371094 483.421875 743.175781 C 483.714844 742.980469 484.023438 742.8125 484.351562 742.675781 C 484.679688 742.542969 485.015625 742.441406 485.363281 742.371094 C 485.710938 742.300781 486.0625 742.265625 486.417969 742.265625 C 486.769531 742.265625 487.121094 742.300781 487.46875 742.371094 C 487.816406 742.441406 488.152344 742.542969 488.480469 742.675781 C 488.808594 742.8125 489.117188 742.980469 489.414062 743.175781 C 489.707031 743.371094 489.980469 743.59375 490.230469 743.847656 C 490.480469 744.097656 490.703125 744.367188 490.898438 744.664062 C 491.097656 744.957031 491.261719 745.269531 491.398438 745.59375 C 491.535156 745.921875 491.636719 746.257812 491.707031 746.605469 C 491.773438 746.953125 491.808594 747.304688 491.808594 747.660156 C 491.808594 748.011719 491.773438 748.363281 491.707031 748.710938 C 491.636719 749.058594 491.535156 749.394531 491.398438 749.722656 C 491.261719 750.046875 491.097656 750.359375 490.898438 750.652344 C 490.703125 750.949219 490.480469 751.21875 490.230469 751.46875 C 489.980469 751.722656 489.707031 751.945312 489.414062 752.140625 C 489.117188 752.335938 488.808594 752.503906 488.480469 752.640625 C 488.152344 752.773438 487.816406 752.875 487.46875 752.945312 C 487.121094 753.015625 486.769531 753.050781 486.417969 753.050781 Z M 486.417969 753.050781 " fill-opacity="1" fill-rule="nonzero"/><path fill="#fcfcfd" d="M 545.738281 602.089844 C 545.386719 602.089844 545.035156 602.054688 544.6875 601.988281 C 544.339844 601.917969 544.003906 601.816406 543.675781 601.679688 C 543.347656 601.546875 543.039062 601.378906 542.742188 601.183594 C 542.449219 600.984375 542.175781 600.761719 541.925781 600.511719 C 541.675781 600.261719 541.453125 599.988281 541.253906 599.695312 C 541.058594 599.402344 540.890625 599.089844 540.757812 598.761719 C 540.621094 598.4375 540.519531 598.097656 540.449219 597.75 C 540.378906 597.40625 540.347656 597.054688 540.347656 596.699219 C 540.347656 596.347656 540.378906 595.996094 540.449219 595.648438 C 540.519531 595.300781 540.621094 594.964844 540.757812 594.636719 C 540.890625 594.308594 541.058594 594 541.253906 593.703125 C 541.453125 593.410156 541.675781 593.136719 541.925781 592.886719 C 542.175781 592.636719 542.449219 592.414062 542.742188 592.21875 C 543.039062 592.019531 543.347656 591.855469 543.675781 591.71875 C 544.003906 591.582031 544.339844 591.480469 544.6875 591.410156 C 545.035156 591.34375 545.386719 591.308594 545.738281 591.308594 C 546.09375 591.308594 546.445312 591.34375 546.792969 591.410156 C 547.136719 591.480469 547.476562 591.582031 547.804688 591.71875 C 548.128906 591.855469 548.441406 592.019531 548.734375 592.21875 C 549.03125 592.414062 549.300781 592.636719 549.550781 592.886719 C 549.804688 593.136719 550.027344 593.410156 550.222656 593.703125 C 550.417969 594 550.585938 594.308594 550.722656 594.636719 C 550.855469 594.964844 550.960938 595.300781 551.027344 595.648438 C 551.097656 595.996094 551.132812 596.347656 551.132812 596.699219 C 551.132812 597.054688 551.097656 597.40625 551.027344 597.75 C 550.960938 598.097656 550.855469 598.4375 550.722656 598.761719 C 550.585938 599.089844 550.417969 599.402344 550.222656 599.695312 C 550.027344 599.988281 549.804688 600.261719 549.550781 600.511719 C 549.300781 600.761719 549.03125 600.984375 548.734375 601.183594 C 548.441406 601.378906 548.128906 601.546875 547.804688 601.679688 C 547.476562 601.816406 547.136719 601.917969 546.792969 601.988281 C 546.445312 602.054688 546.09375 602.089844 545.738281 602.089844 Z M 545.738281 602.089844 " fill-opacity="1" fill-rule="nonzero"/><path fill="#fcfcfd" d="M 572.703125 602.089844 C 572.351562 602.089844 572 602.054688 571.652344 601.988281 C 571.304688 601.917969 570.96875 601.816406 570.640625 601.679688 C 570.3125 601.546875 570.003906 601.378906 569.707031 601.183594 C 569.414062 600.984375 569.140625 600.761719 568.890625 600.511719 C 568.640625 600.261719 568.417969 599.988281 568.21875 599.695312 C 568.023438 599.402344 567.855469 599.089844 567.722656 598.761719 C 567.585938 598.4375 567.484375 598.097656 567.414062 597.75 C 567.34375 597.40625 567.3125 597.054688 567.3125 596.699219 C 567.3125 596.347656 567.34375 595.996094 567.414062 595.648438 C 567.484375 595.300781 567.585938 594.964844 567.722656 594.636719 C 567.855469 594.308594 568.023438 594 568.21875 593.703125 C 568.417969 593.410156 568.640625 593.136719 568.890625 592.886719 C 569.140625 592.636719 569.414062 592.414062 569.707031 592.21875 C 570.003906 592.019531 570.3125 591.855469 570.640625 591.71875 C 570.96875 591.582031 571.304688 591.480469 571.652344 591.410156 C 572 591.34375 572.351562 591.308594 572.703125 591.308594 C 573.058594 591.308594 573.410156 591.34375 573.757812 591.410156 C 574.101562 591.480469 574.441406 591.582031 574.769531 591.71875 C 575.09375 591.855469 575.40625 592.019531 575.699219 592.21875 C 575.996094 592.414062 576.265625 592.636719 576.515625 592.886719 C 576.769531 593.136719 576.992188 593.410156 577.1875 593.703125 C 577.382812 594 577.550781 594.308594 577.6875 594.636719 C 577.820312 594.964844 577.925781 595.300781 577.992188 595.648438 C 578.0625 595.996094 578.097656 596.347656 578.097656 596.699219 C 578.097656 597.054688 578.0625 597.40625 577.992188 597.75 C 577.925781 598.097656 577.820312 598.4375 577.6875 598.761719 C 577.550781 599.089844 577.382812 599.402344 577.1875 599.695312 C 576.992188 599.988281 576.769531 600.261719 576.515625 600.511719 C 576.265625 600.761719 575.996094 600.984375 575.699219 601.183594 C 575.40625 601.378906 575.09375 601.546875 574.769531 601.679688 C 574.441406 601.816406 574.101562 601.917969 573.757812 601.988281 C 573.410156 602.054688 573.058594 602.089844 572.703125 602.089844 Z M 572.703125 602.089844 " fill-opacity="1" fill-rule="nonzero"/><path fill="#fcfcfd" d="M 32.507812 515.828125 C 32.152344 515.828125 31.804688 515.792969 31.457031 515.726562 C 31.109375 515.65625 30.773438 515.554688 30.445312 515.417969 C 30.117188 515.28125 29.804688 515.117188 29.511719 514.921875 C 29.21875 514.722656 28.945312 514.5 28.695312 514.25 C 28.445312 514 28.222656 513.726562 28.023438 513.433594 C 27.828125 513.136719 27.660156 512.828125 27.527344 512.5 C 27.390625 512.175781 27.289062 511.835938 27.21875 511.488281 C 27.148438 511.140625 27.117188 510.792969 27.117188 510.4375 C 27.117188 510.082031 27.148438 509.734375 27.21875 509.386719 C 27.289062 509.039062 27.390625 508.703125 27.527344 508.375 C 27.660156 508.046875 27.828125 507.738281 28.023438 507.441406 C 28.222656 507.148438 28.445312 506.875 28.695312 506.625 C 28.945312 506.375 29.21875 506.152344 29.511719 505.953125 C 29.804688 505.757812 30.117188 505.59375 30.445312 505.457031 C 30.773438 505.320312 31.109375 505.21875 31.457031 505.148438 C 31.804688 505.082031 32.152344 505.046875 32.507812 505.046875 C 32.863281 505.046875 33.214844 505.082031 33.558594 505.148438 C 33.90625 505.21875 34.246094 505.320312 34.570312 505.457031 C 34.898438 505.59375 35.210938 505.757812 35.503906 505.953125 C 35.800781 506.152344 36.070312 506.375 36.320312 506.625 C 36.570312 506.875 36.796875 507.148438 36.992188 507.441406 C 37.1875 507.738281 37.355469 508.046875 37.492188 508.375 C 37.625 508.703125 37.730469 509.039062 37.796875 509.386719 C 37.867188 509.734375 37.902344 510.082031 37.902344 510.4375 C 37.902344 510.792969 37.867188 511.140625 37.796875 511.488281 C 37.730469 511.835938 37.625 512.175781 37.492188 512.5 C 37.355469 512.828125 37.1875 513.136719 36.992188 513.433594 C 36.796875 513.726562 36.570312 514 36.320312 514.25 C 36.070312 514.5 35.800781 514.722656 35.503906 514.921875 C 35.210938 515.117188 34.898438 515.28125 34.570312 515.417969 C 34.246094 515.554688 33.90625 515.65625 33.558594 515.726562 C 33.214844 515.792969 32.863281 515.828125 32.507812 515.828125 Z M 32.507812 515.828125 " fill-opacity="1" fill-rule="nonzero"/><path fill="#fcfcfd" d="M 588.882812 496.960938 C 588.527344 496.960938 588.179688 496.925781 587.832031 496.855469 C 587.484375 496.785156 587.144531 496.683594 586.820312 496.550781 C 586.492188 496.414062 586.179688 496.246094 585.886719 496.050781 C 585.59375 495.855469 585.320312 495.628906 585.070312 495.378906 C 584.820312 495.128906 584.59375 494.859375 584.398438 494.5625 C 584.203125 494.269531 584.035156 493.957031 583.898438 493.632812 C 583.765625 493.304688 583.664062 492.96875 583.59375 492.621094 C 583.523438 492.273438 583.488281 491.921875 583.488281 491.566406 C 583.488281 491.214844 583.523438 490.863281 583.59375 490.515625 C 583.664062 490.167969 583.765625 489.832031 583.898438 489.503906 C 584.035156 489.175781 584.203125 488.867188 584.398438 488.574219 C 584.59375 488.277344 584.820312 488.007812 585.070312 487.753906 C 585.320312 487.503906 585.59375 487.28125 585.886719 487.085938 C 586.179688 486.886719 586.492188 486.722656 586.820312 486.585938 C 587.144531 486.453125 587.484375 486.347656 587.832031 486.28125 C 588.179688 486.210938 588.527344 486.175781 588.882812 486.175781 C 589.238281 486.175781 589.585938 486.210938 589.933594 486.28125 C 590.28125 486.347656 590.621094 486.453125 590.945312 486.585938 C 591.273438 486.722656 591.585938 486.886719 591.878906 487.085938 C 592.171875 487.28125 592.445312 487.503906 592.695312 487.753906 C 592.945312 488.007812 593.171875 488.277344 593.367188 488.574219 C 593.5625 488.867188 593.730469 489.175781 593.867188 489.503906 C 594 489.832031 594.101562 490.167969 594.171875 490.515625 C 594.242188 490.863281 594.277344 491.214844 594.277344 491.566406 C 594.277344 491.921875 594.242188 492.273438 594.171875 492.621094 C 594.101562 492.96875 594 493.304688 593.867188 493.632812 C 593.730469 493.957031 593.5625 494.269531 593.367188 494.5625 C 593.171875 494.859375 592.945312 495.128906 592.695312 495.378906 C 592.445312 495.628906 592.171875 495.855469 591.878906 496.050781 C 591.585938 496.246094 591.273438 496.414062 590.945312 496.550781 C 590.621094 496.683594 590.28125 496.785156 589.933594 496.855469 C 589.585938 496.925781 589.238281 496.960938 588.882812 496.960938 Z M 588.882812 496.960938 " fill-opacity="1" fill-rule="nonzero"/><g clip-path="url(#d08c456a2c)"><path fill="#fcfcfd" d="M 804.601562 658.699219 C 804.246094 658.699219 803.898438 658.667969 803.550781 658.597656 C 803.203125 658.527344 802.863281 658.425781 802.539062 658.289062 C 802.210938 658.15625 801.898438 657.988281 801.605469 657.792969 C 801.3125 657.59375 801.039062 657.371094 800.789062 657.121094 C 800.539062 656.871094 800.3125 656.597656 800.117188 656.304688 C 799.921875 656.011719 799.753906 655.699219 799.621094 655.371094 C 799.484375 655.046875 799.382812 654.707031 799.3125 654.359375 C 799.242188 654.015625 799.207031 653.664062 799.207031 653.308594 C 799.207031 652.957031 799.242188 652.605469 799.3125 652.257812 C 799.382812 651.910156 799.484375 651.574219 799.621094 651.246094 C 799.753906 650.917969 799.921875 650.609375 800.117188 650.3125 C 800.3125 650.019531 800.539062 649.746094 800.789062 649.496094 C 801.039062 649.246094 801.3125 649.023438 801.605469 648.828125 C 801.898438 648.628906 802.210938 648.464844 802.539062 648.328125 C 802.863281 648.191406 803.203125 648.089844 803.550781 648.019531 C 803.898438 647.953125 804.246094 647.917969 804.601562 647.917969 C 804.957031 647.917969 805.304688 647.953125 805.652344 648.019531 C 806 648.089844 806.339844 648.191406 806.664062 648.328125 C 806.992188 648.464844 807.304688 648.628906 807.597656 648.828125 C 807.890625 649.023438 808.164062 649.246094 808.414062 649.496094 C 808.664062 649.746094 808.890625 650.019531 809.085938 650.3125 C 809.28125 650.609375 809.449219 650.917969 809.585938 651.246094 C 809.71875 651.574219 809.820312 651.910156 809.890625 652.257812 C 809.960938 652.605469 809.996094 652.957031 809.996094 653.308594 C 809.996094 653.664062 809.960938 654.015625 809.890625 654.359375 C 809.820312 654.707031 809.71875 655.046875 809.585938 655.371094 C 809.449219 655.699219 809.28125 656.011719 809.085938 656.304688 C 808.890625 656.597656 808.664062 656.871094 808.414062 657.121094 C 808.164062 657.371094 807.890625 657.59375 807.597656 657.792969 C 807.304688 657.988281 806.992188 658.15625 806.664062 658.289062 C 806.339844 658.425781 806 658.527344 805.652344 658.597656 C 805.304688 658.667969 804.957031 658.699219 804.601562 658.699219 Z M 804.601562 658.699219 " fill-opacity="1" fill-rule="nonzero"/></g><path fill="#fcfcfd" d="M 294.964844 771.917969 C 294.613281 771.917969 294.261719 771.886719 293.914062 771.816406 C 293.566406 771.746094 293.230469 771.644531 292.902344 771.507812 C 292.574219 771.375 292.265625 771.207031 291.96875 771.011719 C 291.675781 770.8125 291.402344 770.589844 291.152344 770.339844 C 290.902344 770.089844 290.679688 769.816406 290.480469 769.523438 C 290.285156 769.230469 290.117188 768.917969 289.984375 768.589844 C 289.847656 768.265625 289.746094 767.925781 289.675781 767.578125 C 289.605469 767.234375 289.574219 766.882812 289.574219 766.527344 C 289.574219 766.175781 289.605469 765.824219 289.675781 765.476562 C 289.746094 765.128906 289.847656 764.792969 289.984375 764.464844 C 290.117188 764.136719 290.285156 763.828125 290.480469 763.53125 C 290.679688 763.238281 290.902344 762.964844 291.152344 762.714844 C 291.402344 762.464844 291.675781 762.242188 291.96875 762.046875 C 292.265625 761.847656 292.574219 761.683594 292.902344 761.546875 C 293.230469 761.410156 293.566406 761.308594 293.914062 761.238281 C 294.261719 761.171875 294.613281 761.136719 294.964844 761.136719 C 295.320312 761.136719 295.671875 761.171875 296.019531 761.238281 C 296.363281 761.308594 296.703125 761.410156 297.03125 761.546875 C 297.355469 761.683594 297.667969 761.847656 297.960938 762.046875 C 298.257812 762.242188 298.527344 762.464844 298.777344 762.714844 C 299.03125 762.964844 299.253906 763.238281 299.449219 763.53125 C 299.644531 763.828125 299.8125 764.136719 299.949219 764.464844 C 300.082031 764.792969 300.1875 765.128906 300.253906 765.476562 C 300.324219 765.824219 300.359375 766.175781 300.359375 766.527344 C 300.359375 766.882812 300.324219 767.234375 300.253906 767.578125 C 300.1875 767.925781 300.082031 768.265625 299.949219 768.589844 C 299.8125 768.917969 299.644531 769.230469 299.449219 769.523438 C 299.253906 769.816406 299.03125 770.089844 298.777344 770.339844 C 298.527344 770.589844 298.257812 770.8125 297.960938 771.011719 C 297.667969 771.207031 297.355469 771.375 297.03125 771.507812 C 296.703125 771.644531 296.363281 771.746094 296.019531 771.816406 C 295.671875 771.886719 295.320312 771.917969 294.964844 771.917969 Z M 294.964844 771.917969 " fill-opacity="1" fill-rule="nonzero"/><path fill="#fcfcfd" d="M 93.566406 284.890625 C 92.851562 284.890625 92.148438 284.824219 91.449219 284.683594 C 90.75 284.546875 90.074219 284.339844 89.414062 284.066406 C 88.757812 283.792969 88.132812 283.460938 87.542969 283.066406 C 86.949219 282.671875 86.402344 282.222656 85.898438 281.71875 C 85.394531 281.214844 84.945312 280.667969 84.550781 280.074219 C 84.152344 279.484375 83.820312 278.859375 83.546875 278.199219 C 83.273438 277.542969 83.070312 276.867188 82.929688 276.167969 C 82.792969 275.46875 82.722656 274.765625 82.722656 274.054688 C 82.722656 273.339844 82.792969 272.636719 82.929688 271.9375 C 83.070312 271.238281 83.273438 270.5625 83.546875 269.90625 C 83.820312 269.246094 84.152344 268.621094 84.550781 268.03125 C 84.945312 267.4375 85.394531 266.890625 85.898438 266.386719 C 86.402344 265.886719 86.949219 265.4375 87.542969 265.039062 C 88.132812 264.644531 88.757812 264.3125 89.414062 264.039062 C 90.074219 263.765625 90.75 263.5625 91.449219 263.421875 C 92.148438 263.28125 92.851562 263.214844 93.566406 263.214844 C 94.277344 263.214844 94.980469 263.28125 95.679688 263.421875 C 96.378906 263.5625 97.054688 263.765625 97.714844 264.039062 C 98.371094 264.3125 98.996094 264.644531 99.589844 265.039062 C 100.179688 265.4375 100.726562 265.886719 101.230469 266.386719 C 101.734375 266.890625 102.183594 267.4375 102.582031 268.03125 C 102.976562 268.621094 103.308594 269.246094 103.582031 269.90625 C 103.855469 270.5625 104.058594 271.238281 104.199219 271.9375 C 104.339844 272.636719 104.40625 273.339844 104.40625 274.054688 C 104.40625 274.765625 104.339844 275.46875 104.199219 276.167969 C 104.058594 276.867188 103.855469 277.542969 103.582031 278.199219 C 103.308594 278.859375 102.976562 279.484375 102.582031 280.074219 C 102.183594 280.667969 101.734375 281.214844 101.230469 281.71875 C 100.726562 282.222656 100.179688 282.671875 99.589844 283.066406 C 98.996094 283.460938 98.371094 283.792969 97.714844 284.066406 C 97.054688 284.339844 96.378906 284.546875 95.679688 284.683594 C 94.980469 284.824219 94.277344 284.890625 93.566406 284.890625 Z M 93.566406 284.890625 " fill-opacity="1" fill-rule="nonzero"/><path fill="#fcfcfd" d="M 362.378906 1284.101562 C 361.847656 1284.101562 361.320312 1284.046875 360.800781 1283.945312 C 360.277344 1283.839844 359.773438 1283.6875 359.28125 1283.484375 C 358.792969 1283.28125 358.324219 1283.03125 357.882812 1282.738281 C 357.441406 1282.441406 357.035156 1282.105469 356.65625 1281.730469 C 356.28125 1281.355469 355.945312 1280.949219 355.652344 1280.507812 C 355.355469 1280.0625 355.105469 1279.597656 354.902344 1279.109375 C 354.699219 1278.617188 354.546875 1278.113281 354.445312 1277.589844 C 354.339844 1277.070312 354.289062 1276.542969 354.289062 1276.011719 C 354.289062 1275.480469 354.339844 1274.957031 354.445312 1274.433594 C 354.546875 1273.914062 354.699219 1273.410156 354.902344 1272.917969 C 355.105469 1272.425781 355.355469 1271.960938 355.652344 1271.519531 C 355.945312 1271.078125 356.28125 1270.671875 356.65625 1270.292969 C 357.035156 1269.917969 357.441406 1269.582031 357.882812 1269.289062 C 358.324219 1268.992188 358.792969 1268.746094 359.28125 1268.542969 C 359.773438 1268.339844 360.277344 1268.183594 360.800781 1268.082031 C 361.320312 1267.976562 361.847656 1267.925781 362.378906 1267.925781 C 362.910156 1267.925781 363.433594 1267.976562 363.957031 1268.082031 C 364.476562 1268.183594 364.984375 1268.339844 365.472656 1268.542969 C 365.964844 1268.746094 366.429688 1268.992188 366.871094 1269.289062 C 367.3125 1269.582031 367.722656 1269.917969 368.097656 1270.292969 C 368.472656 1270.671875 368.808594 1271.078125 369.105469 1271.519531 C 369.398438 1271.960938 369.648438 1272.425781 369.851562 1272.917969 C 370.054688 1273.410156 370.207031 1273.914062 370.3125 1274.433594 C 370.414062 1274.957031 370.46875 1275.480469 370.46875 1276.011719 C 370.46875 1276.542969 370.414062 1277.070312 370.3125 1277.589844 C 370.207031 1278.113281 370.054688 1278.617188 369.851562 1279.109375 C 369.648438 1279.597656 369.398438 1280.0625 369.105469 1280.507812 C 368.808594 1280.949219 368.472656 1281.355469 368.097656 1281.730469 C 367.722656 1282.105469 367.3125 1282.441406 366.871094 1282.738281 C 366.429688 1283.03125 365.964844 1283.28125 365.472656 1283.484375 C 364.984375 1283.6875 364.476562 1283.839844 363.957031 1283.945312 C 363.433594 1284.046875 362.910156 1284.101562 362.378906 1284.101562 Z M 362.378906 1284.101562 " fill-opacity="1" fill-rule="nonzero"/><path fill="#fcfcfd" d="M 413.609375 464.609375 C 413.078125 464.609375 412.554688 464.558594 412.03125 464.457031 C 411.511719 464.351562 411.007812 464.199219 410.515625 463.996094 C 410.023438 463.792969 409.558594 463.542969 409.117188 463.25 C 408.675781 462.953125 408.265625 462.617188 407.890625 462.242188 C 407.515625 461.867188 407.179688 461.457031 406.886719 461.015625 C 406.589844 460.574219 406.339844 460.109375 406.136719 459.617188 C 405.933594 459.128906 405.78125 458.621094 405.675781 458.101562 C 405.574219 457.582031 405.523438 457.054688 405.523438 456.523438 C 405.523438 455.992188 405.574219 455.46875 405.675781 454.945312 C 405.78125 454.425781 405.933594 453.917969 406.136719 453.429688 C 406.339844 452.9375 406.589844 452.472656 406.886719 452.03125 C 407.179688 451.589844 407.515625 451.179688 407.890625 450.804688 C 408.265625 450.429688 408.675781 450.09375 409.117188 449.800781 C 409.558594 449.503906 410.023438 449.253906 410.515625 449.050781 C 411.007812 448.847656 411.511719 448.695312 412.03125 448.59375 C 412.554688 448.488281 413.078125 448.4375 413.609375 448.4375 C 414.140625 448.4375 414.667969 448.488281 415.1875 448.59375 C 415.710938 448.695312 416.214844 448.847656 416.707031 449.050781 C 417.199219 449.253906 417.664062 449.503906 418.105469 449.800781 C 418.546875 450.09375 418.957031 450.429688 419.332031 450.804688 C 419.707031 451.179688 420.042969 451.589844 420.335938 452.03125 C 420.632812 452.472656 420.882812 452.9375 421.085938 453.429688 C 421.289062 453.917969 421.441406 454.425781 421.546875 454.945312 C 421.648438 455.46875 421.699219 455.992188 421.699219 456.523438 C 421.699219 457.054688 421.648438 457.582031 421.546875 458.101562 C 421.441406 458.621094 421.289062 459.128906 421.085938 459.617188 C 420.882812 460.109375 420.632812 460.574219 420.335938 461.015625 C 420.042969 461.457031 419.707031 461.867188 419.332031 462.242188 C 418.957031 462.617188 418.546875 462.953125 418.105469 463.25 C 417.664062 463.542969 417.199219 463.792969 416.707031 463.996094 C 416.214844 464.199219 415.710938 464.351562 415.1875 464.457031 C 414.667969 464.558594 414.140625 464.609375 413.609375 464.609375 Z M 413.609375 464.609375 " fill-opacity="1" fill-rule="nonzero"/><path fill="#fcfcfd" d="M 286.875 957.921875 C 286.34375 957.921875 285.820312 957.871094 285.296875 957.765625 C 284.777344 957.664062 284.269531 957.507812 283.78125 957.304688 C 283.289062 957.101562 282.824219 956.855469 282.382812 956.558594 C 281.941406 956.265625 281.53125 955.929688 281.15625 955.554688 C 280.78125 955.175781 280.445312 954.769531 280.148438 954.328125 C 279.855469 953.886719 279.605469 953.421875 279.402344 952.929688 C 279.199219 952.4375 279.046875 951.933594 278.941406 951.414062 C 278.839844 950.890625 278.785156 950.367188 278.785156 949.835938 C 278.785156 949.304688 278.839844 948.777344 278.941406 948.257812 C 279.046875 947.734375 279.199219 947.230469 279.402344 946.738281 C 279.605469 946.25 279.855469 945.785156 280.148438 945.34375 C 280.445312 944.898438 280.78125 944.492188 281.15625 944.117188 C 281.53125 943.742188 281.941406 943.40625 282.382812 943.109375 C 282.824219 942.816406 283.289062 942.566406 283.78125 942.363281 C 284.269531 942.160156 284.777344 942.007812 285.296875 941.902344 C 285.820312 941.800781 286.34375 941.746094 286.875 941.746094 C 287.40625 941.746094 287.933594 941.800781 288.453125 941.902344 C 288.976562 942.007812 289.480469 942.160156 289.972656 942.363281 C 290.460938 942.566406 290.929688 942.816406 291.371094 943.109375 C 291.8125 943.40625 292.21875 943.742188 292.597656 944.117188 C 292.972656 944.492188 293.308594 944.898438 293.601562 945.34375 C 293.898438 945.785156 294.148438 946.25 294.351562 946.738281 C 294.554688 947.230469 294.707031 947.734375 294.808594 948.257812 C 294.914062 948.777344 294.964844 949.304688 294.964844 949.835938 C 294.964844 950.367188 294.914062 950.890625 294.808594 951.414062 C 294.707031 951.933594 294.554688 952.4375 294.351562 952.929688 C 294.148438 953.421875 293.898438 953.886719 293.601562 954.328125 C 293.308594 954.769531 292.972656 955.175781 292.597656 955.554688 C 292.21875 955.929688 291.8125 956.265625 291.371094 956.558594 C 290.929688 956.855469 290.460938 957.101562 289.972656 957.304688 C 289.480469 957.507812 288.976562 957.664062 288.453125 957.765625 C 287.933594 957.871094 287.40625 957.921875 286.875 957.921875 Z M 286.875 957.921875 " fill-opacity="1" fill-rule="nonzero"/><g clip-path="url(#2b93000f2c)"><path fill="#fcfcfd" d="M 11.835938 901.3125 C 11.304688 901.3125 10.777344 901.261719 10.257812 901.15625 C 9.734375 901.054688 9.230469 900.898438 8.738281 900.695312 C 8.246094 900.492188 7.78125 900.246094 7.339844 899.949219 C 6.898438 899.65625 6.488281 899.320312 6.113281 898.945312 C 5.738281 898.566406 5.402344 898.160156 5.109375 897.71875 C 4.8125 897.277344 4.5625 896.8125 4.359375 896.320312 C 4.15625 895.828125 4.003906 895.324219 3.898438 894.804688 C 3.796875 894.28125 3.746094 893.757812 3.746094 893.226562 C 3.746094 892.695312 3.796875 892.167969 3.898438 891.648438 C 4.003906 891.125 4.15625 890.621094 4.359375 890.128906 C 4.5625 889.640625 4.8125 889.175781 5.109375 888.730469 C 5.402344 888.289062 5.738281 887.882812 6.113281 887.507812 C 6.488281 887.132812 6.898438 886.796875 7.339844 886.5 C 7.78125 886.207031 8.246094 885.957031 8.738281 885.753906 C 9.230469 885.550781 9.734375 885.398438 10.257812 885.292969 C 10.777344 885.191406 11.304688 885.136719 11.835938 885.136719 C 12.367188 885.136719 12.890625 885.191406 13.414062 885.292969 C 13.933594 885.398438 14.4375 885.550781 14.929688 885.753906 C 15.421875 885.957031 15.886719 886.207031 16.328125 886.5 C 16.769531 886.796875 17.179688 887.132812 17.554688 887.507812 C 17.929688 887.882812 18.265625 888.289062 18.558594 888.730469 C 18.855469 889.175781 19.105469 889.640625 19.308594 890.128906 C 19.511719 890.621094 19.664062 891.125 19.769531 891.648438 C 19.871094 892.167969 19.921875 892.695312 19.921875 893.226562 C 19.921875 893.757812 19.871094 894.28125 19.769531 894.804688 C 19.664062 895.324219 19.511719 895.828125 19.308594 896.320312 C 19.105469 896.8125 18.855469 897.277344 18.558594 897.71875 C 18.265625 898.160156 17.929688 898.566406 17.554688 898.945312 C 17.179688 899.320312 16.769531 899.65625 16.328125 899.949219 C 15.886719 900.246094 15.421875 900.492188 14.929688 900.695312 C 14.4375 900.898438 13.933594 901.054688 13.414062 901.15625 C 12.890625 901.261719 12.367188 901.3125 11.835938 901.3125 Z M 11.835938 901.3125 " fill-opacity="1" fill-rule="nonzero"/></g><path fill="#fcfcfd" d="M 491.808594 367.566406 C 491.277344 367.566406 490.753906 367.515625 490.230469 367.410156 C 489.710938 367.308594 489.203125 367.152344 488.714844 366.949219 C 488.222656 366.746094 487.757812 366.5 487.316406 366.203125 C 486.875 365.910156 486.464844 365.574219 486.089844 365.199219 C 485.714844 364.820312 485.378906 364.414062 485.082031 363.972656 C 484.789062 363.53125 484.539062 363.066406 484.335938 362.574219 C 484.132812 362.082031 483.980469 361.578125 483.875 361.058594 C 483.773438 360.535156 483.71875 360.011719 483.71875 359.480469 C 483.71875 358.949219 483.773438 358.421875 483.875 357.902344 C 483.980469 357.378906 484.132812 356.875 484.335938 356.382812 C 484.539062 355.894531 484.789062 355.429688 485.082031 354.984375 C 485.378906 354.542969 485.714844 354.136719 486.089844 353.761719 C 486.464844 353.386719 486.875 353.050781 487.316406 352.753906 C 487.757812 352.460938 488.222656 352.210938 488.714844 352.007812 C 489.203125 351.804688 489.710938 351.652344 490.230469 351.546875 C 490.753906 351.445312 491.277344 351.390625 491.808594 351.390625 C 492.339844 351.390625 492.867188 351.445312 493.386719 351.546875 C 493.910156 351.652344 494.414062 351.804688 494.90625 352.007812 C 495.394531 352.210938 495.863281 352.460938 496.304688 352.753906 C 496.746094 353.050781 497.152344 353.386719 497.53125 353.761719 C 497.90625 354.136719 498.242188 354.542969 498.535156 354.984375 C 498.832031 355.429688 499.078125 355.894531 499.28125 356.382812 C 499.484375 356.875 499.640625 357.378906 499.742188 357.902344 C 499.847656 358.421875 499.898438 358.949219 499.898438 359.480469 C 499.898438 360.011719 499.847656 360.535156 499.742188 361.058594 C 499.640625 361.578125 499.484375 362.082031 499.28125 362.574219 C 499.078125 363.066406 498.832031 363.53125 498.535156 363.972656 C 498.242188 364.414062 497.90625 364.820312 497.53125 365.199219 C 497.152344 365.574219 496.746094 365.910156 496.304688 366.203125 C 495.863281 366.5 495.394531 366.746094 494.90625 366.949219 C 494.414062 367.152344 493.910156 367.308594 493.386719 367.410156 C 492.867188 367.515625 492.339844 367.566406 491.808594 367.566406 Z M 491.808594 367.566406 " fill-opacity="1" fill-rule="nonzero"/><path fill="#fcfcfd" d="M 329.972656 1329.148438 C 329.621094 1329.148438 329.269531 1329.113281 328.921875 1329.042969 C 328.574219 1328.976562 328.238281 1328.871094 327.910156 1328.738281 C 327.582031 1328.601562 327.273438 1328.4375 326.976562 1328.238281 C 326.683594 1328.042969 326.410156 1327.820312 326.160156 1327.570312 C 325.910156 1327.316406 325.6875 1327.046875 325.488281 1326.75 C 325.292969 1326.457031 325.128906 1326.144531 324.992188 1325.820312 C 324.855469 1325.492188 324.753906 1325.15625 324.683594 1324.808594 C 324.617188 1324.460938 324.582031 1324.109375 324.582031 1323.757812 C 324.582031 1323.402344 324.617188 1323.050781 324.683594 1322.703125 C 324.753906 1322.355469 324.855469 1322.019531 324.992188 1321.691406 C 325.128906 1321.367188 325.292969 1321.054688 325.488281 1320.761719 C 325.6875 1320.464844 325.910156 1320.195312 326.160156 1319.945312 C 326.410156 1319.695312 326.683594 1319.46875 326.976562 1319.273438 C 327.273438 1319.078125 327.582031 1318.910156 327.910156 1318.773438 C 328.238281 1318.640625 328.574219 1318.539062 328.921875 1318.46875 C 329.269531 1318.398438 329.621094 1318.363281 329.972656 1318.363281 C 330.328125 1318.363281 330.679688 1318.398438 331.027344 1318.46875 C 331.375 1318.539062 331.710938 1318.640625 332.039062 1318.773438 C 332.363281 1318.910156 332.675781 1319.078125 332.96875 1319.273438 C 333.265625 1319.46875 333.535156 1319.695312 333.789062 1319.945312 C 334.039062 1320.195312 334.261719 1320.464844 334.457031 1320.761719 C 334.65625 1321.054688 334.820312 1321.367188 334.957031 1321.691406 C 335.09375 1322.019531 335.195312 1322.355469 335.261719 1322.703125 C 335.332031 1323.050781 335.367188 1323.402344 335.367188 1323.757812 C 335.367188 1324.109375 335.332031 1324.460938 335.261719 1324.808594 C 335.195312 1325.15625 335.09375 1325.492188 334.957031 1325.820312 C 334.820312 1326.144531 334.65625 1326.457031 334.457031 1326.75 C 334.261719 1327.046875 334.039062 1327.316406 333.789062 1327.570312 C 333.535156 1327.820312 333.265625 1328.042969 332.96875 1328.238281 C 332.675781 1328.4375 332.363281 1328.601562 332.039062 1328.738281 C 331.710938 1328.871094 331.375 1328.976562 331.027344 1329.042969 C 330.679688 1329.113281 330.328125 1329.148438 329.972656 1329.148438 Z M 329.972656 1329.148438 " fill-opacity="1" fill-rule="nonzero"/><path fill="#fcfcfd" d="M 402.824219 1359.335938 C 402.292969 1359.335938 401.769531 1359.28125 401.246094 1359.179688 C 400.726562 1359.074219 400.21875 1358.921875 399.730469 1358.71875 C 399.238281 1358.515625 398.773438 1358.265625 398.332031 1357.972656 C 397.890625 1357.675781 397.480469 1357.339844 397.105469 1356.964844 C 396.730469 1356.589844 396.394531 1356.179688 396.097656 1355.738281 C 395.804688 1355.296875 395.554688 1354.832031 395.351562 1354.339844 C 395.148438 1353.851562 394.996094 1353.34375 394.890625 1352.824219 C 394.789062 1352.304688 394.734375 1351.777344 394.734375 1351.246094 C 394.734375 1350.714844 394.789062 1350.191406 394.890625 1349.667969 C 394.996094 1349.148438 395.148438 1348.640625 395.351562 1348.152344 C 395.554688 1347.660156 395.804688 1347.195312 396.097656 1346.753906 C 396.394531 1346.3125 396.730469 1345.902344 397.105469 1345.527344 C 397.480469 1345.152344 397.890625 1344.816406 398.332031 1344.523438 C 398.773438 1344.226562 399.238281 1343.980469 399.730469 1343.773438 C 400.21875 1343.570312 400.726562 1343.417969 401.246094 1343.316406 C 401.769531 1343.210938 402.292969 1343.160156 402.824219 1343.160156 C 403.355469 1343.160156 403.882812 1343.210938 404.402344 1343.316406 C 404.925781 1343.417969 405.429688 1343.570312 405.921875 1343.773438 C 406.410156 1343.980469 406.878906 1344.226562 407.320312 1344.523438 C 407.761719 1344.816406 408.167969 1345.152344 408.546875 1345.527344 C 408.921875 1345.902344 409.257812 1346.3125 409.550781 1346.753906 C 409.847656 1347.195312 410.09375 1347.660156 410.296875 1348.152344 C 410.503906 1348.640625 410.65625 1349.148438 410.757812 1349.667969 C 410.863281 1350.191406 410.914062 1350.714844 410.914062 1351.246094 C 410.914062 1351.777344 410.863281 1352.304688 410.757812 1352.824219 C 410.65625 1353.34375 410.503906 1353.851562 410.296875 1354.339844 C 410.09375 1354.832031 409.847656 1355.296875 409.550781 1355.738281 C 409.257812 1356.179688 408.921875 1356.589844 408.546875 1356.964844 C 408.167969 1357.339844 407.761719 1357.675781 407.320312 1357.972656 C 406.878906 1358.265625 406.410156 1358.515625 405.921875 1358.71875 C 405.429688 1358.921875 404.925781 1359.074219 404.402344 1359.179688 C 403.882812 1359.28125 403.355469 1359.335938 402.824219 1359.335938 Z M 402.824219 1359.335938 " fill-opacity="1" fill-rule="nonzero"/><path fill="#fcfcfd" d="M 37.902344 966.007812 C 37.371094 966.007812 36.84375 965.957031 36.324219 965.851562 C 35.800781 965.75 35.296875 965.597656 34.804688 965.394531 C 34.316406 965.191406 33.847656 964.941406 33.40625 964.644531 C 32.964844 964.351562 32.558594 964.015625 32.179688 963.640625 C 31.804688 963.265625 31.46875 962.855469 31.175781 962.414062 C 30.878906 961.972656 30.632812 961.507812 30.425781 961.015625 C 30.222656 960.527344 30.070312 960.019531 29.96875 959.5 C 29.863281 958.980469 29.8125 958.453125 29.8125 957.921875 C 29.8125 957.390625 29.863281 956.863281 29.96875 956.34375 C 30.070312 955.824219 30.222656 955.316406 30.425781 954.828125 C 30.632812 954.335938 30.878906 953.871094 31.175781 953.429688 C 31.46875 952.988281 31.804688 952.578125 32.179688 952.203125 C 32.558594 951.828125 32.964844 951.492188 33.40625 951.199219 C 33.847656 950.902344 34.316406 950.652344 34.804688 950.449219 C 35.296875 950.246094 35.800781 950.09375 36.324219 949.988281 C 36.84375 949.886719 37.371094 949.835938 37.902344 949.835938 C 38.433594 949.835938 38.957031 949.886719 39.480469 949.988281 C 40 950.09375 40.507812 950.246094 40.996094 950.449219 C 41.488281 950.652344 41.953125 950.902344 42.394531 951.199219 C 42.835938 951.492188 43.246094 951.828125 43.621094 952.203125 C 43.996094 952.578125 44.332031 952.988281 44.628906 953.429688 C 44.921875 953.871094 45.171875 954.335938 45.375 954.828125 C 45.578125 955.316406 45.730469 955.824219 45.835938 956.34375 C 45.9375 956.863281 45.992188 957.390625 45.992188 957.921875 C 45.992188 958.453125 45.9375 958.980469 45.835938 959.5 C 45.730469 960.019531 45.578125 960.527344 45.375 961.015625 C 45.171875 961.507812 44.921875 961.972656 44.628906 962.414062 C 44.332031 962.855469 43.996094 963.265625 43.621094 963.640625 C 43.246094 964.015625 42.835938 964.351562 42.394531 964.644531 C 41.953125 964.941406 41.488281 965.191406 40.996094 965.394531 C 40.507812 965.597656 40 965.75 39.480469 965.855469 C 38.957031 965.957031 38.433594 966.007812 37.902344 966.007812 Z M 37.902344 966.007812 " fill-opacity="1" fill-rule="nonzero"/><path fill="#fcfcfd" d="M 230.25 1103.488281 C 229.894531 1103.488281 229.546875 1103.453125 229.199219 1103.386719 C 228.851562 1103.316406 228.511719 1103.214844 228.1875 1103.078125 C 227.859375 1102.941406 227.546875 1102.777344 227.253906 1102.582031 C 226.960938 1102.382812 226.6875 1102.160156 226.4375 1101.910156 C 226.1875 1101.660156 225.960938 1101.386719 225.765625 1101.09375 C 225.570312 1100.796875 225.402344 1100.488281 225.265625 1100.160156 C 225.132812 1099.832031 225.03125 1099.496094 224.960938 1099.148438 C 224.890625 1098.800781 224.855469 1098.453125 224.855469 1098.097656 C 224.855469 1097.742188 224.890625 1097.394531 224.960938 1097.046875 C 225.03125 1096.699219 225.132812 1096.359375 225.265625 1096.035156 C 225.402344 1095.707031 225.570312 1095.398438 225.765625 1095.101562 C 225.960938 1094.808594 226.1875 1094.535156 226.4375 1094.285156 C 226.6875 1094.035156 226.960938 1093.8125 227.253906 1093.613281 C 227.546875 1093.417969 227.859375 1093.253906 228.1875 1093.117188 C 228.511719 1092.980469 228.851562 1092.878906 229.199219 1092.808594 C 229.546875 1092.742188 229.894531 1092.707031 230.25 1092.707031 C 230.605469 1092.707031 230.953125 1092.742188 231.300781 1092.808594 C 231.648438 1092.878906 231.988281 1092.980469 232.3125 1093.117188 C 232.640625 1093.253906 232.953125 1093.417969 233.246094 1093.613281 C 233.539062 1093.8125 233.8125 1094.035156 234.0625 1094.285156 C 234.3125 1094.535156 234.539062 1094.808594 234.734375 1095.101562 C 234.929688 1095.398438 235.097656 1095.707031 235.230469 1096.035156 C 235.367188 1096.359375 235.46875 1096.699219 235.539062 1097.046875 C 235.609375 1097.394531 235.644531 1097.742188 235.644531 1098.097656 C 235.644531 1098.453125 235.609375 1098.800781 235.539062 1099.148438 C 235.46875 1099.496094 235.367188 1099.832031 235.230469 1100.160156 C 235.097656 1100.488281 234.929688 1100.796875 234.734375 1101.09375 C 234.539062 1101.386719 234.3125 1101.660156 234.0625 1101.910156 C 233.8125 1102.160156 233.539062 1102.382812 233.246094 1102.582031 C 232.953125 1102.777344 232.640625 1102.941406 232.3125 1103.078125 C 231.988281 1103.214844 231.648438 1103.316406 231.300781 1103.386719 C 230.953125 1103.453125 230.605469 1103.488281 230.25 1103.488281 Z M 230.25 1103.488281 " fill-opacity="1" fill-rule="nonzero"/><path fill="#fcfcfd" d="M 284.574219 709.285156 C 284.285156 709.285156 284.003906 709.257812 283.722656 709.203125 C 283.441406 709.144531 283.167969 709.0625 282.902344 708.953125 C 282.636719 708.84375 282.386719 708.707031 282.148438 708.550781 C 281.910156 708.390625 281.6875 708.210938 281.484375 708.007812 C 281.285156 707.804688 281.101562 707.582031 280.945312 707.34375 C 280.785156 707.105469 280.648438 706.855469 280.539062 706.589844 C 280.429688 706.328125 280.347656 706.054688 280.292969 705.773438 C 280.234375 705.492188 280.207031 705.207031 280.207031 704.921875 C 280.207031 704.632812 280.234375 704.351562 280.292969 704.070312 C 280.347656 703.789062 280.429688 703.515625 280.539062 703.25 C 280.648438 702.984375 280.785156 702.734375 280.945312 702.496094 C 281.101562 702.257812 281.285156 702.039062 281.484375 701.835938 C 281.6875 701.632812 281.910156 701.449219 282.148438 701.292969 C 282.386719 701.132812 282.636719 701 282.902344 700.890625 C 283.167969 700.777344 283.441406 700.695312 283.722656 700.640625 C 284.003906 700.585938 284.285156 700.554688 284.574219 700.554688 C 284.859375 700.554688 285.144531 700.585938 285.425781 700.640625 C 285.707031 700.695312 285.980469 700.777344 286.242188 700.890625 C 286.507812 701 286.761719 701.132812 287 701.292969 C 287.238281 701.449219 287.457031 701.632812 287.660156 701.835938 C 287.863281 702.039062 288.042969 702.257812 288.203125 702.496094 C 288.363281 702.734375 288.496094 702.984375 288.605469 703.25 C 288.714844 703.515625 288.800781 703.789062 288.855469 704.070312 C 288.910156 704.351562 288.9375 704.632812 288.9375 704.921875 C 288.9375 705.207031 288.910156 705.492188 288.855469 705.773438 C 288.800781 706.054688 288.714844 706.328125 288.605469 706.589844 C 288.496094 706.855469 288.363281 707.105469 288.203125 707.34375 C 288.042969 707.582031 287.863281 707.804688 287.660156 708.007812 C 287.457031 708.210938 287.238281 708.390625 287 708.550781 C 286.761719 708.707031 286.507812 708.84375 286.242188 708.953125 C 285.980469 709.0625 285.707031 709.144531 285.425781 709.203125 C 285.144531 709.257812 284.859375 709.285156 284.574219 709.285156 Z M 284.574219 709.285156 " fill-opacity="1" fill-rule="nonzero"/><path fill="#fcfcfd" d="M 543.042969 168.085938 C 542.6875 168.085938 542.335938 168.050781 541.992188 167.980469 C 541.644531 167.914062 541.304688 167.808594 540.980469 167.675781 C 540.652344 167.539062 540.339844 167.375 540.046875 167.175781 C 539.75 166.980469 539.480469 166.757812 539.230469 166.507812 C 538.980469 166.257812 538.753906 165.984375 538.558594 165.6875 C 538.363281 165.394531 538.195312 165.085938 538.058594 164.757812 C 537.925781 164.429688 537.820312 164.09375 537.753906 163.746094 C 537.683594 163.398438 537.648438 163.046875 537.648438 162.695312 C 537.648438 162.339844 537.683594 161.988281 537.753906 161.640625 C 537.820312 161.296875 537.925781 160.957031 538.058594 160.632812 C 538.195312 160.304688 538.363281 159.992188 538.558594 159.699219 C 538.753906 159.40625 538.980469 159.132812 539.230469 158.882812 C 539.480469 158.632812 539.75 158.40625 540.046875 158.210938 C 540.339844 158.015625 540.652344 157.847656 540.980469 157.714844 C 541.304688 157.578125 541.644531 157.476562 541.992188 157.40625 C 542.335938 157.335938 542.6875 157.300781 543.042969 157.300781 C 543.398438 157.300781 543.746094 157.335938 544.09375 157.40625 C 544.441406 157.476562 544.777344 157.578125 545.105469 157.714844 C 545.433594 157.847656 545.746094 158.015625 546.039062 158.210938 C 546.332031 158.40625 546.605469 158.632812 546.855469 158.882812 C 547.105469 159.132812 547.328125 159.40625 547.527344 159.699219 C 547.722656 159.992188 547.890625 160.304688 548.023438 160.632812 C 548.160156 160.957031 548.261719 161.296875 548.332031 161.640625 C 548.402344 161.988281 548.433594 162.339844 548.433594 162.695312 C 548.433594 163.046875 548.402344 163.398438 548.332031 163.746094 C 548.261719 164.09375 548.160156 164.429688 548.023438 164.757812 C 547.890625 165.085938 547.722656 165.394531 547.527344 165.6875 C 547.328125 165.984375 547.105469 166.257812 546.855469 166.507812 C 546.605469 166.757812 546.332031 166.980469 546.039062 167.175781 C 545.746094 167.375 545.433594 167.539062 545.105469 167.675781 C 544.777344 167.808594 544.441406 167.914062 544.09375 167.980469 C 543.746094 168.050781 543.398438 168.085938 543.042969 168.085938 Z M 543.042969 168.085938 " fill-opacity="1" fill-rule="nonzero"/><path fill="#fcfcfd" d="M 491.808594 17.125 C 491.277344 17.125 490.753906 17.074219 490.230469 16.972656 C 489.710938 16.867188 489.203125 16.714844 488.714844 16.511719 C 488.222656 16.308594 487.757812 16.058594 487.316406 15.765625 C 486.875 15.46875 486.464844 15.132812 486.089844 14.757812 C 485.714844 14.382812 485.378906 13.972656 485.082031 13.53125 C 484.789062 13.089844 484.539062 12.625 484.335938 12.132812 C 484.132812 11.644531 483.980469 11.136719 483.875 10.617188 C 483.773438 10.097656 483.71875 9.570312 483.71875 9.039062 C 483.71875 8.507812 483.773438 7.984375 483.875 7.460938 C 483.980469 6.941406 484.132812 6.4375 484.335938 5.945312 C 484.539062 5.453125 484.789062 4.988281 485.082031 4.546875 C 485.378906 4.105469 485.714844 3.695312 486.089844 3.320312 C 486.464844 2.945312 486.875 2.609375 487.316406 2.316406 C 487.757812 2.019531 488.222656 1.773438 488.714844 1.570312 C 489.203125 1.363281 489.710938 1.210938 490.230469 1.109375 C 490.753906 1.003906 491.277344 0.953125 491.808594 0.953125 C 492.339844 0.953125 492.867188 1.003906 493.386719 1.109375 C 493.910156 1.210938 494.414062 1.363281 494.90625 1.570312 C 495.394531 1.773438 495.863281 2.019531 496.304688 2.316406 C 496.746094 2.609375 497.152344 2.945312 497.53125 3.320312 C 497.90625 3.695312 498.242188 4.105469 498.535156 4.546875 C 498.832031 4.988281 499.078125 5.453125 499.28125 5.945312 C 499.484375 6.4375 499.640625 6.941406 499.742188 7.460938 C 499.847656 7.984375 499.898438 8.507812 499.898438 9.039062 C 499.898438 9.570312 499.847656 10.097656 499.742188 10.617188 C 499.640625 11.136719 499.484375 11.644531 499.28125 12.132812 C 499.078125 12.625 498.832031 13.089844 498.535156 13.53125 C 498.242188 13.972656 497.90625 14.382812 497.53125 14.757812 C 497.152344 15.132812 496.746094 15.46875 496.304688 15.765625 C 495.863281 16.058594 495.394531 16.308594 494.90625 16.511719 C 494.414062 16.714844 493.910156 16.867188 493.386719 16.972656 C 492.867188 17.074219 492.339844 17.125 491.808594 17.125 Z M 491.808594 17.125 " fill-opacity="1" fill-rule="nonzero"/><path fill="#fcfcfd" d="M 402.824219 780.238281 L 391.902344 781.824219 C 391.398438 781.898438 390.941406 782.125 390.578125 782.488281 C 390.222656 782.851562 389.980469 783.3125 389.910156 783.8125 L 388.332031 794.726562 L 386.746094 783.808594 C 386.671875 783.304688 386.445312 782.84375 386.078125 782.484375 C 385.722656 782.128906 385.253906 781.886719 384.757812 781.816406 L 373.839844 780.238281 L 384.761719 778.652344 C 385.261719 778.578125 385.722656 778.351562 386.085938 777.988281 C 386.441406 777.625 386.683594 777.164062 386.75 776.664062 L 388.332031 765.75 L 389.917969 776.667969 C 389.992188 777.171875 390.21875 777.628906 390.582031 777.992188 C 390.9375 778.347656 391.40625 778.589844 391.90625 778.660156 Z M 402.824219 780.238281 " fill-opacity="1" fill-rule="nonzero"/></svg>