<svg xmlns="http://www.w3.org/2000/svg" xmlns:xlink="http://www.w3.org/1999/xlink" width="256" zoomAndPan="magnify" viewBox="0 0 192 191.999996" height="256" preserveAspectRatio="xMidYMid meet" version="1.0"><defs><clipPath id="27188c7871"><path d="M 15 21 L 172 21 L 172 171 L 15 171 Z M 15 21 " clip-rule="nonzero"/></clipPath><clipPath id="51663c0c24"><path d="M 44.261719 0 L 186.683594 42.058594 L 142.5 191.671875 L 0.0820312 149.613281 Z M 44.261719 0 " clip-rule="nonzero"/></clipPath><clipPath id="f3b5cae013"><path d="M 44.261719 0 L 186.683594 42.058594 L 142.5 191.671875 L 0.0820312 149.613281 Z M 44.261719 0 " clip-rule="nonzero"/></clipPath><clipPath id="be19375270"><path d="M 65 67 L 122 67 L 122 125 L 65 125 Z M 65 67 " clip-rule="nonzero"/></clipPath><clipPath id="37a92caba3"><path d="M 44.261719 0 L 186.683594 42.058594 L 142.5 191.671875 L 0.0820312 149.613281 Z M 44.261719 0 " clip-rule="nonzero"/></clipPath><clipPath id="41c70d1066"><path d="M 44.261719 0 L 186.683594 42.058594 L 142.5 191.671875 L 0.0820312 149.613281 Z M 44.261719 0 " clip-rule="nonzero"/></clipPath></defs><g clip-path="url(#27188c7871)"><g clip-path="url(#51663c0c24)"><g clip-path="url(#f3b5cae013)"><path fill="#ff7300" d="M 90.507812 57.320312 C 97.96875 59.523438 104.613281 47.480469 115.550781 21.050781 C 110.375 49.183594 109.410156 62.902344 116.871094 65.105469 C 123.074219 66.9375 135.097656 60.804688 155.371094 48.375 C 140.382812 62.636719 131.605469 72.09375 129.695312 78.570312 C 128.148438 83.808594 131.09375 87.097656 138.882812 89.398438 C 145.832031 91.449219 156.632812 92.714844 171.53125 93.882812 C 145.566406 97.335938 132.1875 100.414062 130.277344 106.878906 C 128.367188 113.34375 137.929688 123.195312 157.851562 140.199219 C 144.710938 133.085938 134.957031 128.28125 128.007812 126.230469 C 120.21875 123.929688 115.957031 125.089844 114.410156 130.328125 C 112.496094 136.804688 114.726562 149.511719 119.5625 169.628906 C 109.296875 148.179688 102.53125 136.496094 96.328125 134.664062 C 88.867188 132.464844 82.222656 144.507812 71.289062 170.933594 C 76.464844 142.804688 77.425781 129.085938 69.96875 126.882812 C 63.765625 125.050781 51.738281 131.179688 31.464844 143.613281 C 46.457031 129.351562 55.230469 119.894531 57.144531 113.417969 C 58.691406 108.175781 55.742188 104.890625 47.953125 102.589844 C 41.003906 100.539062 30.203125 99.269531 15.304688 98.105469 C 41.269531 94.652344 54.648438 91.574219 56.558594 85.109375 C 58.46875 78.644531 48.90625 68.792969 28.984375 51.789062 C 42.125 58.902344 51.882812 63.707031 58.828125 65.757812 C 66.617188 68.058594 70.878906 66.898438 72.429688 61.65625 C 74.339844 55.183594 72.109375 42.476562 67.273438 22.355469 C 77.539062 43.808594 84.304688 55.488281 90.507812 57.320312 Z M 90.507812 57.320312 " fill-opacity="1" fill-rule="nonzero"/></g></g></g><g clip-path="url(#be19375270)"><g clip-path="url(#37a92caba3)"><g clip-path="url(#41c70d1066)"><path fill="#ffd740" d="M 120.511719 103.996094 C 120.25 104.882812 119.945312 105.753906 119.597656 106.613281 C 119.25 107.46875 118.863281 108.308594 118.433594 109.128906 C 118 109.945312 117.53125 110.742188 117.023438 111.515625 C 116.515625 112.289062 115.96875 113.035156 115.390625 113.753906 C 114.808594 114.472656 114.191406 115.164062 113.542969 115.824219 C 112.894531 116.480469 112.210938 117.105469 111.5 117.699219 C 110.789062 118.292969 110.054688 118.847656 109.289062 119.367188 C 108.523438 119.886719 107.734375 120.367188 106.917969 120.808594 C 106.105469 121.253906 105.273438 121.652344 104.421875 122.015625 C 103.570312 122.375 102.703125 122.691406 101.820312 122.96875 C 100.933594 123.242188 100.039062 123.472656 99.132812 123.660156 C 98.226562 123.847656 97.316406 123.992188 96.394531 124.089844 C 95.476562 124.183594 94.550781 124.238281 93.628906 124.246094 C 92.703125 124.25 91.777344 124.210938 90.855469 124.128906 C 89.9375 124.046875 89.019531 123.917969 88.113281 123.742188 C 87.203125 123.570312 86.304688 123.351562 85.417969 123.089844 C 84.53125 122.828125 83.65625 122.523438 82.800781 122.171875 C 81.941406 121.824219 81.105469 121.4375 80.285156 121.007812 C 79.464844 120.578125 78.667969 120.109375 77.898438 119.597656 C 77.125 119.089844 76.378906 118.546875 75.65625 117.964844 C 74.9375 117.382812 74.25 116.765625 73.589844 116.117188 C 72.929688 115.46875 72.304688 114.789062 71.710938 114.078125 C 71.121094 113.367188 70.566406 112.628906 70.042969 111.863281 C 69.523438 111.097656 69.042969 110.308594 68.601562 109.496094 C 68.160156 108.683594 67.757812 107.851562 67.398438 106.996094 C 67.039062 106.144531 66.71875 105.277344 66.445312 104.394531 C 66.167969 103.511719 65.9375 102.617188 65.75 101.710938 C 65.5625 100.804688 65.421875 99.890625 65.324219 98.96875 C 65.226562 98.050781 65.175781 97.128906 65.167969 96.203125 C 65.160156 95.277344 65.199219 94.355469 65.285156 93.433594 C 65.367188 92.511719 65.496094 91.59375 65.671875 90.6875 C 65.84375 89.777344 66.0625 88.878906 66.324219 87.992188 C 66.585938 87.105469 66.890625 86.234375 67.238281 85.375 C 67.585938 84.519531 67.976562 83.679688 68.40625 82.859375 C 68.835938 82.042969 69.304688 81.246094 69.8125 80.472656 C 70.320312 79.699219 70.867188 78.953125 71.449219 78.234375 C 72.03125 77.511719 72.644531 76.824219 73.296875 76.164062 C 73.945312 75.503906 74.625 74.878906 75.335938 74.289062 C 76.046875 73.695312 76.785156 73.140625 77.550781 72.621094 C 78.316406 72.101562 79.105469 71.621094 79.917969 71.175781 C 80.730469 70.734375 81.5625 70.332031 82.414062 69.972656 C 83.265625 69.613281 84.136719 69.296875 85.019531 69.019531 C 85.902344 68.746094 86.796875 68.515625 87.703125 68.328125 C 88.609375 68.140625 89.523438 67.996094 90.441406 67.898438 C 91.363281 67.800781 92.285156 67.75 93.210938 67.742188 C 94.136719 67.734375 95.058594 67.773438 95.980469 67.859375 C 96.902344 67.941406 97.816406 68.070312 98.726562 68.246094 C 99.632812 68.417969 100.53125 68.636719 101.421875 68.898438 C 102.308594 69.160156 103.179688 69.464844 104.039062 69.8125 C 104.894531 70.160156 105.734375 70.550781 106.550781 70.980469 C 107.371094 71.410156 108.167969 71.878906 108.941406 72.386719 C 109.714844 72.898438 110.460938 73.441406 111.179688 74.023438 C 111.898438 74.605469 112.589844 75.21875 113.246094 75.871094 C 113.90625 76.519531 114.53125 77.199219 115.125 77.910156 C 115.714844 78.621094 116.273438 79.359375 116.792969 80.125 C 117.3125 80.890625 117.792969 81.679688 118.234375 82.492188 C 118.675781 83.304688 119.078125 84.136719 119.4375 84.988281 C 119.800781 85.84375 120.117188 86.710938 120.390625 87.59375 C 120.667969 88.476562 120.898438 89.371094 121.085938 90.277344 C 121.273438 91.183594 121.414062 92.097656 121.511719 93.015625 C 121.609375 93.9375 121.664062 94.859375 121.667969 95.785156 C 121.675781 96.710938 121.636719 97.632812 121.554688 98.554688 C 121.46875 99.476562 121.339844 100.390625 121.167969 101.300781 C 120.992188 102.210938 120.777344 103.109375 120.511719 103.996094 Z M 120.511719 103.996094 " fill-opacity="1" fill-rule="nonzero"/></g></g></g></svg>