<svg xmlns="http://www.w3.org/2000/svg" xmlns:xlink="http://www.w3.org/1999/xlink" width="400" zoomAndPan="magnify" viewBox="0 0 300 299.999988" height="400" preserveAspectRatio="xMidYMid meet" version="1.0"><defs><filter x="0%" y="0%" width="100%" height="100%" id="9c84d8ba27"><feColorMatrix values="0 0 0 0 1 0 0 0 0 1 0 0 0 0 1 0 0 0 1 0" color-interpolation-filters="sRGB"/></filter><mask id="002518a066"><g filter="url(#9c84d8ba27)"><rect x="-30" width="360" fill="#000000" y="-29.999999" height="359.999986" fill-opacity="0.95"/></g></mask><clipPath id="8c225737ba"><path d="M 0.25 0 L 287.5 0 L 287.5 150 L 0.25 150 Z M 0.25 0 " clip-rule="nonzero"/></clipPath><clipPath id="9bc3d9740f"><rect x="0" width="288" y="0" height="300"/></clipPath></defs><g mask="url(#002518a066)"><g transform="matrix(1, 0, 0, 1, 6, 0)"><g clip-path="url(#9bc3d9740f)"><path fill="#ff8845" d="M 262.886719 133.832031 L 5.214844 142.195312 C 2.875 143.878906 1.796875 145.324219 1.976562 146.527344 C 3.167969 148.46875 5.367188 149.597656 8.582031 149.914062 C 11.230469 150.585938 17.773438 151.570312 28.199219 152.871094 C 31.6875 153.304688 44.914062 154.371094 67.878906 156.0625 C 74.765625 156.855469 77.898438 157.410156 77.285156 157.730469 L 31.601562 167.535156 C 24.976562 170.738281 24.214844 172.929688 29.316406 174.109375 C 33.296875 175.046875 38.558594 175.625 45.101562 175.84375 L 112.265625 177.324219 C 119.105469 177.617188 122.488281 178.003906 122.40625 178.484375 C 122.671875 179.078125 121.867188 179.71875 119.996094 180.410156 L 86.535156 187.242188 C 83.492188 188.097656 81.792969 188.929688 81.441406 189.75 C 80.714844 190.953125 81.769531 191.929688 84.601562 192.671875 L 110.484375 194.640625 C 114.324219 195.273438 115.839844 195.789062 115.035156 196.183594 L 53.480469 204.773438 C 46.289062 206.074219 42.6875 207.773438 42.667969 209.875 C 42.917969 211.085938 46.355469 211.875 52.988281 212.25 L 128.652344 214.390625 C 128.339844 215.238281 126.910156 215.914062 124.363281 216.417969 C 101.175781 219.851562 86.402344 222.328125 80.035156 223.847656 C 71.59375 225.664062 67.449219 227.371094 67.609375 228.972656 C 66.382812 230.5 72.511719 231.898438 85.996094 233.171875 C 126.082031 232.355469 145.15625 232.265625 143.21875 232.910156 C 143.773438 233.519531 142.742188 234.089844 140.121094 234.621094 C 117.554688 238.167969 103.835938 240.605469 98.964844 241.9375 C 90.621094 243.988281 86.171875 246.175781 85.621094 248.492188 C 85.609375 250.054688 87.109375 251.105469 90.117188 251.648438 C 120.582031 253.496094 137.433594 255.464844 140.679688 257.550781 C 141.078125 258.300781 140.640625 259.011719 139.363281 259.679688 C 124.125 264.167969 113.894531 267.605469 108.664062 269.984375 C 106.398438 270.972656 105.125 272.164062 104.839844 273.558594 C 105.140625 274.933594 106.363281 275.910156 108.511719 276.488281 C 124.554688 278.824219 132.871094 280.226562 133.460938 280.691406 C 134.316406 281.6875 134.46875 282.457031 133.917969 282.996094 C 130.207031 285.386719 126.601562 288.433594 123.097656 292.136719 C 121.484375 293.90625 120.941406 295.699219 121.460938 297.519531 C 122.183594 299.402344 127.65625 300.179688 137.875 299.855469 C 157.507812 299.371094 175.207031 297.042969 190.976562 292.867188 C 193.933594 291.359375 194.113281 289.667969 191.507812 287.789062 C 189.796875 286.433594 183.511719 283.980469 172.652344 280.429688 C 171.070312 279.640625 170.910156 278.382812 172.179688 276.652344 C 174.019531 275.074219 176.628906 273.796875 180.007812 272.824219 L 215.542969 263.765625 C 218.617188 263.003906 220.796875 262.089844 222.085938 261.019531 C 223.390625 259.066406 222.164062 257.398438 218.402344 256.007812 C 213.550781 254.113281 203.148438 251.511719 187.195312 248.203125 C 185.484375 247.664062 185.160156 247.007812 186.226562 246.226562 L 234.9375 241.105469 C 244.542969 239.363281 249.539062 237.558594 249.929688 235.691406 C 251.503906 234.027344 249.730469 232.113281 244.609375 229.941406 C 242.902344 229.234375 228.128906 226.449219 200.28125 221.585938 C 194.019531 219.949219 191.484375 218.644531 192.683594 217.675781 C 192.058594 216.671875 195.71875 215.28125 203.664062 213.503906 C 235.761719 208.726562 254.621094 205.390625 260.242188 203.492188 C 264.046875 202.566406 265.230469 201.199219 263.796875 199.390625 C 262.789062 198.597656 259.203125 197.6875 253.03125 196.664062 C 233.59375 194.246094 218.546875 191.984375 207.902344 189.871094 C 199.765625 188.3125 195.71875 187.046875 195.761719 186.066406 C 195.871094 185.273438 197.3125 184.714844 200.085938 184.386719 L 264.179688 177.636719 C 269.34375 176.988281 272.441406 176.277344 273.472656 175.503906 C 274.667969 173.964844 273.960938 172.617188 271.347656 171.460938 L 245.730469 164.460938 C 245.640625 163.503906 246.5 162.699219 248.316406 162.042969 C 267.453125 157.242188 277.347656 154.679688 278 154.355469 C 279.96875 153.804688 281.425781 152.910156 282.371094 151.671875 C 282.847656 150.066406 281.828125 148 279.3125 145.472656 C 273.886719 140.734375 268.410156 136.851562 262.886719 133.832031 " fill-opacity="1" fill-rule="nonzero"/><path fill="#f86e20" d="M 138.128906 201.210938 C 137.433594 201.199219 136.6875 201.207031 135.898438 201.226562 L 130.0625 201.257812 C 113.363281 201.613281 84.414062 204.035156 43.210938 208.535156 C 42.855469 208.960938 42.671875 209.410156 42.667969 209.875 C 42.917969 211.085938 46.355469 211.875 52.988281 212.25 L 128.648438 214.390625 C 128.339844 215.238281 126.910156 215.914062 124.363281 216.417969 C 101.175781 219.847656 86.402344 222.328125 80.035156 223.847656 C 71.59375 225.664062 67.449219 227.371094 67.609375 228.972656 C 66.382812 230.496094 72.511719 231.898438 85.996094 233.171875 C 112.796875 232.625 130.207031 232.40625 138.222656 232.511719 C 142.195312 232.566406 143.859375 232.699219 143.21875 232.910156 C 143.773438 233.519531 142.742188 234.089844 140.121094 234.621094 C 117.554688 238.167969 103.835938 240.605469 98.964844 241.9375 C 90.621094 243.988281 86.171875 246.175781 85.621094 248.492188 C 85.609375 250.054688 87.109375 251.105469 90.117188 251.648438 C 120.582031 253.496094 137.433594 255.460938 140.679688 257.550781 C 141.078125 258.300781 140.640625 259.011719 139.363281 259.679688 C 124.125 264.167969 113.894531 267.605469 108.664062 269.984375 C 106.398438 270.972656 105.125 272.164062 104.839844 273.558594 C 105.140625 274.933594 106.363281 275.910156 108.511719 276.488281 C 124.554688 278.824219 132.871094 280.226562 133.460938 280.691406 C 134.316406 281.6875 134.46875 282.457031 133.917969 282.996094 C 130.207031 285.386719 126.601562 288.433594 123.097656 292.136719 C 121.484375 293.90625 120.941406 295.699219 121.460938 297.519531 C 122.042969 299.03125 125.679688 299.828125 132.375 299.917969 C 134.023438 299.941406 135.855469 299.921875 137.875 299.855469 C 157.507812 299.371094 175.207031 297.042969 190.976562 292.867188 C 193.933594 291.359375 194.113281 289.664062 191.507812 287.789062 C 189.796875 286.433594 183.511719 283.980469 172.652344 280.429688 C 171.070312 279.640625 170.910156 278.382812 172.179688 276.652344 C 174.019531 275.074219 176.628906 273.796875 180.007812 272.824219 L 215.542969 263.765625 C 218.617188 263.003906 220.796875 262.089844 222.085938 261.019531 C 223.390625 259.066406 222.164062 257.398438 218.402344 256.007812 C 213.550781 254.113281 203.148438 251.511719 187.195312 248.203125 C 185.484375 247.664062 185.160156 247.007812 186.226562 246.226562 L 234.9375 241.105469 C 244.542969 239.363281 249.539062 237.558594 249.929688 235.691406 C 251.503906 234.027344 249.730469 232.113281 244.609375 229.941406 C 243.835938 229.621094 240.386719 228.875 234.253906 227.703125 L 234.25 227.703125 C 224.78125 228.476562 213.824219 229.402344 201.375 230.488281 C 197.910156 230.660156 194.863281 230.730469 192.230469 230.695312 C 189.015625 230.652344 186.425781 230.453125 184.453125 230.097656 C 181.664062 229.6875 179.59375 228.980469 178.25 227.976562 C 174.296875 221.042969 170.878906 217.484375 168.003906 217.304688 C 167.402344 217.070312 165.574219 216.933594 162.515625 216.890625 C 159.097656 216.84375 154.136719 216.921875 147.640625 217.121094 C 143.660156 216.71875 141.234375 216.203125 140.371094 215.574219 C 139.214844 214.800781 138.78125 213.789062 139.070312 212.535156 C 144.53125 206.484375 146.785156 203.449219 145.832031 203.425781 L 145.828125 203.425781 C 145.828125 203.425781 145.824219 203.425781 145.824219 203.425781 C 145.800781 203.425781 145.78125 203.425781 145.753906 203.429688 C 145.410156 202.011719 142.867188 201.273438 138.128906 201.210938 Z M 138.128906 201.210938 " fill-opacity="1" fill-rule="nonzero"/><path fill="#f86e20" d="M 126.417969 160.4375 L 126.882812 159.851562 C 129.128906 158.648438 135.757812 157.578125 146.765625 156.648438 C 157.851562 155.714844 170.917969 155.152344 185.960938 154.957031 C 200.320312 154.832031 211.816406 155.121094 220.441406 155.820312 C 229.0625 156.53125 232.570312 157.507812 230.972656 158.753906 C 228.726562 159.960938 222.097656 161.027344 211.085938 161.960938 C 200.003906 162.894531 186.9375 163.457031 171.890625 163.648438 C 157.53125 163.777344 146.039062 163.488281 137.414062 162.785156 L 133.632812 162.417969 L 130.578125 161.996094 L 128.316406 161.523438 L 126.90625 161 L 126.417969 160.4375 " fill-opacity="1" fill-rule="nonzero"/><path fill="#f86e20" d="M 153.5625 170.328125 L 153.15625 170.324219 C 152.078125 170.320312 150.988281 170.355469 149.894531 170.429688 L 153.609375 170.90625 C 152.601562 170.867188 150.054688 170.941406 145.976562 171.140625 C 144.402344 171.242188 142.90625 171.378906 141.492188 171.546875 C 138.097656 172.03125 136.15625 172.359375 135.671875 172.535156 L 133.972656 172.96875 C 133.902344 173.046875 133.871094 173.128906 133.875 173.21875 C 133.765625 173.425781 134.238281 173.816406 135.296875 174.398438 C 139.441406 175.261719 142.335938 176.089844 143.988281 176.882812 C 145.0625 177.386719 145.632812 177.929688 145.703125 178.507812 C 145.832031 179.089844 145.503906 179.609375 144.71875 180.066406 C 143.796875 180.601562 141.617188 181.515625 138.183594 182.804688 C 137.785156 182.996094 137.367188 183.230469 136.929688 183.511719 C 136.617188 183.664062 136.519531 183.882812 136.632812 184.171875 C 136.707031 184.371094 136.863281 184.558594 137.109375 184.730469 C 137.847656 185.242188 139.363281 185.617188 141.660156 185.855469 C 146.804688 186.429688 150.984375 186.710938 154.207031 186.707031 C 156.730469 186.765625 162.199219 186.628906 170.613281 186.296875 L 177.957031 185.992188 C 178.429688 185.96875 178.699219 185.878906 178.757812 185.722656 C 178.738281 185.609375 178.421875 185.5 177.808594 185.398438 C 168.570312 184.152344 163.066406 183.332031 161.300781 182.933594 C 156.914062 181.945312 154.757812 181.183594 154.835938 180.652344 C 154.6875 180.042969 155.078125 179.585938 156.003906 179.273438 L 171.816406 175.96875 C 173.199219 175.667969 174.273438 175.382812 175.042969 175.105469 C 175.683594 174.925781 176.164062 174.597656 176.480469 174.125 C 176.574219 173.863281 176.417969 173.566406 176.019531 173.238281 C 175.875 173.144531 174.921875 172.957031 173.164062 172.675781 L 157.601562 170.570312 C 155.96875 170.410156 154.621094 170.328125 153.5625 170.328125 " fill-opacity="1" fill-rule="nonzero"/><path fill="#f86e20" d="M 94.085938 162.339844 L 96.441406 162.183594 C 101.191406 161.921875 105.003906 161.898438 107.882812 162.121094 L 109.144531 162.25 L 110.167969 162.414062 L 110.929688 162.613281 L 111.410156 162.84375 L 111.589844 163.113281 L 111.453125 163.40625 C 110.742188 164.023438 108.582031 164.636719 104.960938 165.246094 C 101.320312 165.855469 97.007812 166.3125 92.035156 166.617188 C 87.28125 166.878906 83.46875 166.898438 80.59375 166.675781 L 79.328125 166.550781 L 78.304688 166.386719 L 77.542969 166.1875 L 77.0625 165.953125 L 76.882812 165.683594 L 77.019531 165.394531 C 77.730469 164.773438 79.894531 164.160156 83.511719 163.554688 C 84.679688 163.359375 85.957031 163.171875 87.339844 163 L 89.476562 162.753906 C 90.945312 162.597656 92.480469 162.457031 94.085938 162.339844 " fill-opacity="1" fill-rule="nonzero"/><path fill="#f86e20" d="M 200.835938 197.992188 L 200.472656 197.988281 C 199.789062 197.957031 198.058594 198.050781 195.28125 198.269531 C 183.207031 199.175781 176.144531 199.726562 174.097656 199.933594 C 167.691406 200.46875 163.410156 200.976562 161.257812 201.453125 C 160.488281 201.644531 160.058594 201.761719 159.972656 201.804688 C 159.507812 202.179688 159.292969 202.390625 159.328125 202.433594 C 159.003906 202.765625 159.417969 203.035156 160.570312 203.234375 C 162.832031 203.507812 167.578125 203.707031 174.808594 203.832031 C 176.699219 203.859375 179.210938 203.824219 182.347656 203.71875 C 184.5625 203.667969 188.140625 203.460938 193.085938 203.097656 C 195.550781 202.921875 200.027344 202.535156 206.511719 201.933594 C 208.394531 201.765625 211.125 201.414062 214.699219 200.882812 L 201.042969 197.996094 L 200.835938 197.988281 " fill-opacity="1" fill-rule="nonzero"/><g clip-path="url(#8c225737ba)"><path fill="#ff7d2d" d="M 0.402344 146.464844 L 0.625 135.011719 C 3.59375 95.007812 20.050781 61.652344 49.988281 34.949219 C 80.671875 9.132812 116.0625 -2.378906 156.15625 0.40625 C 196.359375 4.421875 229.449219 21.90625 255.421875 52.855469 C 265.203125 64.894531 272.847656 78.164062 278.355469 92.660156 C 281.085938 99.867188 283.21875 107.246094 284.761719 114.796875 C 286.300781 118.503906 287.234375 129.972656 287.558594 149.203125 L 0.402344 146.464844 " fill-opacity="1" fill-rule="nonzero"/></g><path fill="#f86e20" d="M 146.730469 0.015625 C 110.492188 -0.46875 78.246094 11.175781 49.988281 34.949219 C 37.601562 45.996094 27.523438 58.183594 19.753906 71.507812 C 19.914062 71.652344 20.078125 71.792969 20.242188 71.933594 C 24.066406 75.238281 28.285156 77.621094 32.902344 79.074219 C 36.445312 80.167969 40.1875 80.742188 44.121094 80.792969 C 48.191406 80.847656 52.472656 80.34375 56.957031 79.285156 C 59.6875 78.640625 62.554688 77.785156 65.566406 76.714844 C 85.042969 67.539062 96.40625 62.449219 99.664062 61.441406 C 103.902344 60.355469 107.921875 59.835938 111.722656 59.886719 C 113 59.90625 114.257812 59.988281 115.488281 60.132812 C 119.824219 60.53125 124.496094 62.164062 129.503906 65.039062 C 151.175781 79.746094 164.058594 87.96875 168.15625 89.707031 C 178.234375 94.105469 185.730469 96.335938 190.640625 96.402344 C 191.199219 96.410156 191.726562 96.386719 192.21875 96.339844 C 200.5 96.085938 209.371094 93.578125 218.832031 88.816406 C 221.421875 87.667969 232.648438 80.101562 252.519531 66.117188 C 255.738281 64.152344 258.890625 62.632812 261.96875 61.5625 L 261.976562 61.5625 C 259.910156 58.589844 257.726562 55.6875 255.421875 52.855469 C 229.449219 21.90625 196.359375 4.421875 156.15625 0.40625 C 152.984375 0.1875 149.84375 0.0546875 146.730469 0.015625 Z M 146.730469 0.015625 " fill-opacity="1" fill-rule="nonzero"/><path fill="#383938" d="M 197.945312 46.164062 L 197.3125 46.175781 C 195.746094 46.207031 194.066406 46.648438 192.269531 47.5 C 191.253906 47.96875 189.1875 49.375 186.070312 51.714844 C 186.101562 51.730469 186.203125 51.726562 186.375 51.703125 C 188.011719 51.332031 189.382812 51.070312 190.484375 50.925781 C 191.800781 50.734375 192.933594 50.617188 193.886719 50.582031 C 195.058594 50.527344 196.289062 50.546875 197.582031 50.652344 C 198.351562 50.710938 199.289062 50.859375 200.390625 51.097656 C 202.304688 51.488281 204.472656 52.410156 206.898438 53.859375 C 207.554688 54.273438 208.34375 55.136719 209.261719 56.449219 L 208.773438 51.671875 C 208.636719 51.308594 208.46875 50.964844 208.269531 50.632812 C 207.710938 49.839844 207.339844 49.382812 207.152344 49.261719 C 206.5625 48.703125 205.847656 48.207031 205.003906 47.777344 C 204.796875 47.632812 204.078125 47.339844 202.851562 46.902344 C 201.347656 46.433594 199.710938 46.1875 197.945312 46.160156 " fill-opacity="1" fill-rule="nonzero"/><path fill="#383938" d="M 222.359375 41.910156 L 221.417969 41.921875 C 220.175781 41.96875 218.988281 42.140625 217.851562 42.4375 C 217.550781 42.472656 216.726562 42.765625 215.386719 43.316406 C 213.007812 44.398438 211.011719 45.910156 209.394531 47.847656 C 208.589844 48.847656 208.164062 49.421875 208.117188 49.5625 C 207.691406 50.25 207.453125 50.84375 207.40625 51.335938 C 207.382812 51.585938 207.40625 51.808594 207.476562 52.003906 L 208.761719 57.375 C 208.921875 56.859375 209.464844 55.652344 210.386719 53.757812 C 210.761719 53.039062 211.152344 52.375 211.546875 51.773438 C 212.34375 50.5625 213.175781 49.582031 214.054688 48.832031 C 215.675781 47.480469 217.710938 46.203125 220.148438 44.992188 C 221.335938 44.378906 223.230469 43.695312 225.832031 42.9375 C 226.148438 42.800781 226.363281 42.671875 226.476562 42.554688 C 226.554688 42.457031 226.585938 42.402344 226.574219 42.386719 C 226.25 42.320312 225.925781 42.261719 225.609375 42.207031 C 224.800781 42.054688 223.71875 41.957031 222.359375 41.910156 " fill-opacity="1" fill-rule="nonzero"/><path fill="#383938" d="M 249.320312 65.417969 L 248.421875 65.433594 C 246.992188 65.535156 245.632812 65.769531 244.34375 66.140625 C 243.335938 66.34375 241.828125 67.015625 239.824219 68.160156 C 237.410156 69.828125 235.855469 71.144531 235.160156 72.113281 C 234.117188 73.3125 233.230469 74.628906 232.503906 76.0625 C 230.433594 72.484375 228.019531 69.921875 225.261719 68.367188 C 220.753906 65.886719 216.289062 64.808594 211.867188 65.136719 C 211.65625 65.328125 211.714844 65.542969 212.046875 65.777344 C 217.933594 68.140625 221.867188 70.195312 223.851562 71.945312 C 225.296875 73.117188 226.683594 74.457031 228 75.964844 C 228.679688 76.675781 229.730469 78.289062 231.160156 80.808594 C 231.570312 81.300781 231.890625 81.550781 232.121094 81.566406 C 232.4375 81.613281 232.839844 81.464844 233.328125 81.125 C 235.503906 78.476562 237.417969 76.535156 239.066406 75.304688 C 241.273438 73.683594 244.21875 72.265625 247.90625 71.054688 C 250.125 70.425781 252.425781 70.21875 254.800781 70.429688 C 255.988281 70.535156 257.195312 70.746094 258.417969 71.066406 L 260.273438 71.617188 C 261.515625 72.042969 262.78125 72.570312 264.0625 73.203125 C 262.183594 71.148438 260.863281 69.851562 260.097656 69.3125 C 259.0625 68.472656 258.046875 67.796875 257.050781 67.277344 C 256.386719 66.929688 255.730469 66.65625 255.082031 66.449219 L 252.496094 65.785156 C 251.707031 65.59375 250.648438 65.472656 249.320312 65.417969 " fill-opacity="1" fill-rule="nonzero"/><path fill="#383938" d="M 190.738281 20.703125 L 190.507812 20.753906 C 189.980469 20.855469 189.863281 21.050781 190.15625 21.332031 C 195.140625 23.589844 198.648438 25.625 200.683594 27.429688 C 202.675781 29.121094 205.097656 31.878906 207.957031 35.699219 C 208.5625 36.164062 209.054688 36.320312 209.425781 36.167969 C 209.617188 36.113281 209.925781 35.898438 210.351562 35.527344 C 211.992188 33.320312 213.804688 31.230469 215.78125 29.269531 C 218.101562 27.164062 220.003906 25.734375 221.496094 24.976562 C 223.015625 24.125 224.953125 23.433594 227.3125 22.90625 C 229.335938 22.503906 231.363281 22.359375 233.386719 22.46875 C 229.347656 21.855469 226.332031 21.457031 224.34375 21.277344 C 222.976562 21.210938 221.664062 21.34375 220.402344 21.671875 C 218.953125 21.90625 216.785156 22.992188 213.898438 24.929688 C 211.375 26.980469 210.027344 28.300781 209.851562 28.898438 C 208.3125 26.878906 205.882812 25.121094 202.570312 23.625 C 201.566406 23.144531 199.835938 22.523438 197.382812 21.757812 C 195.359375 21.226562 193.144531 20.875 190.738281 20.703125 " fill-opacity="1" fill-rule="nonzero"/><path fill="#383938" d="M 198.671875 67.238281 L 198.042969 67.242188 C 196.578125 67.308594 195.230469 67.53125 194 67.910156 C 193.417969 68.046875 192.371094 68.496094 190.859375 69.253906 C 190.230469 69.582031 189.46875 70.101562 188.574219 70.808594 C 188.082031 71.226562 187.097656 72.246094 185.632812 73.871094 C 185.539062 73.941406 185.433594 73.984375 185.3125 74.003906 C 183.582031 72.890625 182.011719 71.996094 180.601562 71.324219 L 179.574219 70.859375 C 178.910156 70.578125 178.289062 70.347656 177.703125 70.175781 C 177.121094 70 176.578125 69.882812 176.074219 69.820312 C 174.710938 69.675781 173.382812 69.734375 172.085938 69.988281 C 169.898438 70.464844 168.640625 70.765625 168.3125 70.890625 C 167.664062 71.085938 167.296875 71.246094 167.214844 71.367188 C 167.121094 71.546875 167.238281 71.660156 167.570312 71.714844 C 167.800781 71.691406 169.144531 71.871094 171.601562 72.253906 C 172.210938 72.355469 173.078125 72.546875 174.199219 72.820312 C 175.097656 73.058594 176.289062 73.472656 177.777344 74.058594 C 179.070312 74.621094 180.269531 75.269531 181.378906 76.003906 L 186.132812 79.5625 C 187.988281 77.769531 189.9375 76.003906 191.976562 74.261719 C 192.84375 73.625 193.699219 73.089844 194.550781 72.664062 C 195.519531 72.21875 196.800781 71.78125 198.402344 71.355469 C 200.140625 70.882812 202.300781 70.390625 204.890625 69.875 L 205.003906 69.769531 C 205.207031 69.605469 205.101562 69.351562 204.679688 69.015625 L 204.1875 68.71875 C 203.492188 68.425781 203.011719 68.238281 202.75 68.160156 C 202.441406 67.914062 202.148438 67.742188 201.875 67.640625 C 200.339844 67.332031 199.273438 67.195312 198.671875 67.238281 " fill-opacity="1" fill-rule="nonzero"/></g></g></g></svg>